<?xml version="1.0" encoding="utf-8"?>
<!-- Generator: Adobe Illustrator 26.2.1, SVG Export Plug-In . SVG Version: 6.00 Build 0)  -->
<svg version="1.1" xmlns="http://www.w3.org/2000/svg" xmlns:xlink="http://www.w3.org/1999/xlink" x="0px" y="0px"
	 viewBox="0 0 132.4 95.1" enable-background="new 0 0 132.4 95.1" xml:space="preserve">
<g id="logo-form">
	<g id="outer-circle-left">
		<path fill="#17AF9C" d="M76.5,39.7c0,0.8-0.3,1.7-1,2.3L60.4,57.2c-11.2,11.2-29.5,11.2-40.7,0c-5.4-5.4-8.4-12.7-8.4-20.4
			c0-7.7,3-14.9,8.4-20.4C25.1,11,32.3,8,40,8c7.7,0,14.9,3,20.4,8.4c1.3,1.3,1.3,3.4,0,4.7c-1.3,1.3-3.4,1.3-4.7,0
			c-4.2-4.2-9.8-6.5-15.7-6.5c-5.9,0-11.5,2.3-15.7,6.5c-4.2,4.2-6.5,9.8-6.5,15.7c0,5.9,2.3,11.5,6.5,15.7c8.7,8.7,22.7,8.7,31.4,0
			l15.1-15.1c1.3-1.3,3.4-1.3,4.7,0C76.1,38,76.5,38.9,76.5,39.7z"/>
	</g>
	<g id="inner-circle-left">
		<path fill="#2F9BC1" d="M53.1,27c0,0.8-0.3,1.7-1,2.3c-1.3,1.3-3.4,1.3-4.7,0c-4.1-4.1-10.9-4.1-15,0c-2,2-3.1,4.7-3.1,7.5
			c0,2.8,1.1,5.5,3.1,7.5c2,2,4.7,3.1,7.5,3.1c2.8,0,5.5-1.1,7.5-3.1c1.3-1.3,3.4-1.3,4.7,0c1.3,1.3,1.3,3.4,0,4.7
			c-3.2,3.2-7.6,5-12.2,5c-4.6,0-8.9-1.8-12.2-5c-3.2-3.2-5-7.6-5-12.2c0-4.6,1.8-8.9,5-12.2c6.7-6.7,17.6-6.7,24.3,0
			C52.8,25.3,53.1,26.2,53.1,27z"/>
	</g>
	<g id="outer-circle-right">
		<path fill="#2F9BC1" d="M121.2,36.8c0,7.7-3,14.9-8.4,20.4c-11.2,11.2-29.5,11.2-40.7,0c-1.3-1.3-1.3-3.4,0-4.7
			c1.3-1.3,3.4-1.3,4.7,0c8.7,8.7,22.7,8.7,31.4,0c4.2-4.2,6.5-9.8,6.5-15.7c0-5.9-2.3-11.5-6.5-15.7c-4.2-4.2-9.8-6.5-15.7-6.5
			c-5.9,0-11.5,2.3-15.7,6.5L61.6,36.3c-1.3,1.3-3.4,1.3-4.7,0c-1.3-1.3-1.3-3.4,0-4.7L72,16.5c11.2-11.2,29.5-11.2,40.7,0
			C118.2,21.9,121.2,29.1,121.2,36.8z"/>
	</g>
	<g id="inner-circle-right">
		<path fill="#00ABD8" d="M109.6,36.8c0,4.6-1.8,8.9-5,12.2c-3.2,3.2-7.6,5-12.2,5c-4.6,0-8.9-1.8-12.2-5c-1.3-1.3-1.3-3.4,0-4.7
			c1.3-1.3,3.4-1.3,4.7,0c2,2,4.7,3.1,7.5,3.1c2.8,0,5.5-1.1,7.5-3.1c2-2,3.1-4.7,3.1-7.5c0-2.8-1.1-5.5-3.1-7.5
			c-4.1-4.1-10.9-4.1-15,0c-1.3,1.3-3.4,1.3-4.7,0c-1.3-1.3-1.3-3.4,0-4.7c6.7-6.7,17.6-6.7,24.3,0
			C107.8,27.9,109.6,32.2,109.6,36.8z"/>
	</g>
	<g id="shadow">
		<g opacity="0.2">
			<path fill="#28C67A" d="M22,18.8C12,28.8,12,45,22.1,55c10,9.9,26.2,9.6,36.1-0.4l11.4-11.4c1.9-1.9,4.2-3,6.8-3.4
				c0,0,0-0.1,0-0.1c0-0.8-0.3-1.7-1-2.3c-1.3-1.3-3.4-1.3-4.7,0L55.7,52.5c-8.7,8.7-22.7,8.7-31.4,0c-4.2-4.2-6.5-9.8-6.5-15.7
				c0-5.9,2.3-11.5,6.5-15.7c4.2-4.2,9.8-6.5,15.7-6.5c5.9,0,11.5,2.3,15.7,6.5c1.3,1.3,3.4,1.3,4.7,0c0.7-0.7,1-1.5,1-2.4
				c-2.2-0.2-4.3-1-6.1-2.4C45.2,8.9,31,9.7,22,18.8z"/>
		</g>
		<g opacity="0.2">
			<path fill="#2F9BC1" d="M29.5,27.7c-4.5,5.2-4.5,13,0,18.2c4.7,5.4,12.4,6.2,18.1,2.6c1.7-1.1,3.6-1.7,5.6-1.8
				c0-0.9-0.3-1.7-1-2.4c-1.3-1.3-3.4-1.3-4.7,0c-2,2-4.7,3.1-7.5,3.1c-2.8,0-5.5-1.1-7.5-3.1c-2-2-3.1-4.7-3.1-7.5
				c0-2.8,1.1-5.5,3.1-7.5c4.1-4.1,10.9-4.1,15,0c1.3,1.3,3.4,1.3,4.7,0c0.6-0.6,1-1.5,1-2.3c0,0,0,0,0,0c-2-0.1-3.9-0.7-5.6-1.8
				C41.9,21.5,34.2,22.3,29.5,27.7z"/>
		</g>
		<g opacity="0.2">
			<path fill="#2F9BC1" d="M110.4,54.8c10-10,10-26.2-0.1-36.2c-10-9.9-26.2-9.6-36.1,0.4L62.7,30.4c-1.9,1.9-4.2,3-6.8,3.4
				c0,0.9,0.3,1.8,1,2.5c1.3,1.3,3.4,1.3,4.7,0l15.1-15.1c4.2-4.2,9.8-6.5,15.7-6.5c5.9,0,11.5,2.3,15.7,6.5
				c4.2,4.2,6.5,9.8,6.5,15.7c0,5.9-2.3,11.5-6.5,15.7c-8.7,8.7-22.7,8.7-31.4,0c-1.3-1.3-3.4-1.3-4.7,0c-0.7,0.7-1,1.5-1,2.4
				c2.2,0.2,4.3,1,6.1,2.4C87.2,64.7,101.3,63.9,110.4,54.8z"/>
		</g>
		<g opacity="0.2">
			<path fill="#2F9BC1" d="M103,36.8c0,2.8-1.1,5.5-3.1,7.5c-2,2-4.7,3.1-7.5,3.1c-2.8,0-5.5-1.1-7.5-3.1c-1.3-1.3-3.4-1.3-4.7,0
				c-0.7,0.7-1,1.5-1,2.4c2,0.1,3.9,0.7,5.6,1.8c5.7,3.7,13.4,2.8,18.1-2.6c4.5-5.2,4.5-13,0-18.2c-4.7-5.4-12.4-6.2-18.1-2.6
				c-1.7,1.1-3.6,1.7-5.6,1.8c0,0.9,0.3,1.7,1,2.4c1.3,1.3,3.4,1.3,4.7,0c4.1-4.1,10.9-4.1,15,0C101.9,31.3,103,34,103,36.8z"/>
		</g>
	</g>
</g>
<g id="logo-text">
	<path d="M29.8,80.1c0,0.8-0.2,1.4-0.7,1.8s-1.2,0.6-2,0.6h-0.6V85h-1.5v-7.1h2.3c0.9,0,1.5,0.2,2,0.6
		C29.5,78.8,29.8,79.3,29.8,80.1z M26.4,81.2h0.5c0.5,0,0.8-0.1,1-0.3c0.2-0.2,0.3-0.5,0.3-0.8c0-0.4-0.1-0.6-0.3-0.8
		s-0.5-0.3-0.9-0.3h-0.7V81.2z"/>
	<path d="M34.1,82.2V85h-1.5v-7.1h2.1c1,0,1.7,0.2,2.1,0.5c0.5,0.4,0.7,0.9,0.7,1.6c0,0.4-0.1,0.8-0.3,1.1c-0.2,0.3-0.6,0.6-1,0.8
		c1.1,1.6,1.8,2.6,2.1,3.1h-1.7l-1.7-2.7H34.1z M34.1,81h0.5c0.5,0,0.8-0.1,1.1-0.2S36,80.4,36,80c0-0.3-0.1-0.6-0.3-0.7
		c-0.2-0.1-0.6-0.2-1.1-0.2h-0.5V81z"/>
	<path d="M47.1,81.4c0,1.2-0.3,2.1-0.9,2.7c-0.6,0.6-1.4,0.9-2.5,0.9c-1.1,0-1.9-0.3-2.5-0.9c-0.6-0.6-0.9-1.5-0.9-2.7
		s0.3-2.1,0.9-2.7c0.6-0.6,1.4-0.9,2.5-0.9s1.9,0.3,2.5,0.9S47.1,80.2,47.1,81.4z M41.9,81.4c0,0.8,0.2,1.4,0.5,1.8
		c0.3,0.4,0.8,0.6,1.4,0.6c1.2,0,1.8-0.8,1.8-2.4c0-1.6-0.6-2.4-1.8-2.4c-0.6,0-1.1,0.2-1.4,0.6C42.1,80,41.9,80.6,41.9,81.4z"/>
	<path d="M49.4,87.1c-0.3,0-0.6,0-0.9-0.1v-1.3c0.3,0.1,0.5,0.1,0.7,0.1c0.3,0,0.6-0.1,0.7-0.3c0.1-0.2,0.2-0.5,0.2-1v-6.7h1.5v6.7
		c0,0.8-0.2,1.5-0.6,1.9S50.1,87.1,49.4,87.1z"/>
	<path d="M59,85h-4.1v-7.1H59v1.2h-2.6v1.6h2.4v1.2h-2.4v1.8H59V85z"/>
	<path d="M65,79c-0.6,0-1,0.2-1.3,0.6c-0.3,0.4-0.5,1-0.5,1.8c0,1.6,0.6,2.4,1.8,2.4c0.5,0,1.1-0.1,1.8-0.4v1.3
		c-0.6,0.2-1.2,0.4-2,0.4c-1,0-1.8-0.3-2.4-0.9c-0.5-0.6-0.8-1.5-0.8-2.7c0-0.7,0.1-1.4,0.4-1.9c0.3-0.6,0.7-1,1.2-1.3
		c0.5-0.3,1.1-0.4,1.8-0.4c0.7,0,1.4,0.2,2.1,0.5l-0.5,1.2c-0.3-0.1-0.5-0.2-0.8-0.3S65.3,79,65,79z"/>
	<path d="M72.6,85h-1.5v-5.9h-1.9v-1.3h5.4v1.3h-1.9V85z"/>
	<path d="M85.4,83c0,0.6-0.2,1.1-0.7,1.5c-0.5,0.4-1.1,0.6-1.9,0.6c-0.8,0-1.4-0.1-2-0.4v-1.4c0.5,0.2,0.9,0.4,1.2,0.5
		c0.3,0.1,0.6,0.1,0.9,0.1c0.3,0,0.6-0.1,0.8-0.2c0.2-0.1,0.3-0.3,0.3-0.6c0-0.1,0-0.3-0.1-0.4c-0.1-0.1-0.2-0.2-0.3-0.3
		c-0.2-0.1-0.5-0.3-0.9-0.5c-0.4-0.2-0.8-0.4-1-0.6c-0.2-0.2-0.4-0.4-0.5-0.7c-0.1-0.2-0.2-0.5-0.2-0.9c0-0.6,0.2-1.1,0.6-1.5
		c0.4-0.4,1-0.5,1.8-0.5c0.4,0,0.7,0,1.1,0.1s0.7,0.2,1.1,0.4l-0.5,1.2c-0.4-0.2-0.7-0.3-0.9-0.3C83.7,79,83.4,79,83.2,79
		c-0.3,0-0.5,0.1-0.7,0.2c-0.2,0.1-0.2,0.3-0.2,0.5c0,0.1,0,0.2,0.1,0.3c0.1,0.1,0.2,0.2,0.3,0.3c0.1,0.1,0.5,0.3,1,0.5
		c0.7,0.3,1.1,0.6,1.4,1C85.3,82.1,85.4,82.5,85.4,83z"/>
	<path d="M88.2,85v-7.1h1.5V85H88.2z"/>
	<path d="M95.7,85h-1.5v-5.9h-1.9v-1.3h5.4v1.3h-1.9V85z"/>
	<path d="M104.4,85h-4.1v-7.1h4.1v1.2h-2.6v1.6h2.4v1.2h-2.4v1.8h2.6V85z"/>
</g>
</svg>
