<svg xmlns="http://www.w3.org/2000/svg" viewBox="0 0 132.4 95.1" xml:space="preserve"><path fill="#17AF9C" d="M76.5 39.7c0 .8-.3 1.7-1 2.3L60.4 57.2c-11.2 11.2-29.5 11.2-40.7 0-5.4-5.4-8.4-12.7-8.4-20.4 0-7.7 3-14.9 8.4-20.4C25.1 11 32.3 8 40 8c7.7 0 14.9 3 20.4 8.4 1.3 1.3 1.3 3.4 0 4.7a3.32 3.32 0 0 1-4.7 0c-4.2-4.2-9.8-6.5-15.7-6.5-5.9 0-11.5 2.3-15.7 6.5-4.2 4.2-6.5 9.8-6.5 15.7 0 5.9 2.3 11.5 6.5 15.7 8.7 8.7 22.7 8.7 31.4 0l15.1-15.1c1.3-1.3 3.4-1.3 4.7 0 .6.6 1 1.5 1 2.3z"/><path fill="#2F9BC1" d="M53.1 27c0 .8-.3 1.7-1 2.3a3.32 3.32 0 0 1-4.7 0c-4.1-4.1-10.9-4.1-15 0-2 2-3.1 4.7-3.1 7.5s1.1 5.5 3.1 7.5 4.7 3.1 7.5 3.1 5.5-1.1 7.5-3.1c1.3-1.3 3.4-1.3 4.7 0 1.3 1.3 1.3 3.4 0 4.7-3.2 3.2-7.6 5-12.2 5s-8.9-1.8-12.2-5c-3.2-3.2-5-7.6-5-12.2s1.8-8.9 5-12.2c6.7-6.7 17.6-6.7 24.3 0 .8.7 1.1 1.6 1.1 2.4zM121.2 36.8c0 7.7-3 14.9-8.4 20.4-11.2 11.2-29.5 11.2-40.7 0a3.32 3.32 0 0 1 0-4.7c1.3-1.3 3.4-1.3 4.7 0 8.7 8.7 22.7 8.7 31.4 0 4.2-4.2 6.5-9.8 6.5-15.7 0-5.9-2.3-11.5-6.5-15.7-4.2-4.2-9.8-6.5-15.7-6.5-5.9 0-11.5 2.3-15.7 6.5L61.6 36.3a3.32 3.32 0 0 1-4.7 0 3.32 3.32 0 0 1 0-4.7L72 16.5c11.2-11.2 29.5-11.2 40.7 0 5.5 5.4 8.5 12.6 8.5 20.3z"/><path fill="#00ABD8" d="M109.6 36.8c0 4.6-1.8 8.9-5 12.2-3.2 3.2-7.6 5-12.2 5s-8.9-1.8-12.2-5a3.32 3.32 0 0 1 0-4.7c1.3-1.3 3.4-1.3 4.7 0 2 2 4.7 3.1 7.5 3.1s5.5-1.1 7.5-3.1 3.1-4.7 3.1-7.5-1.1-5.5-3.1-7.5c-4.1-4.1-10.9-4.1-15 0a3.32 3.32 0 0 1-4.7 0 3.32 3.32 0 0 1 0-4.7c6.7-6.7 17.6-6.7 24.3 0 3.3 3.3 5.1 7.6 5.1 12.2z"/><path fill="#28C67A" d="M22 18.8c-10 10-10 26.2.1 36.2 10 9.9 26.2 9.6 36.1-.4l11.4-11.4c1.9-1.9 4.2-3 6.8-3.4v-.1c0-.8-.3-1.7-1-2.3a3.32 3.32 0 0 0-4.7 0l-15 15.1c-8.7 8.7-22.7 8.7-31.4 0-4.2-4.2-6.5-9.8-6.5-15.7 0-5.9 2.3-11.5 6.5-15.7 4.2-4.2 9.8-6.5 15.7-6.5 5.9 0 11.5 2.3 15.7 6.5 1.3 1.3 3.4 1.3 4.7 0 .7-.7 1-1.5 1-2.4-2.2-.2-4.3-1-6.1-2.4C45.2 8.9 31 9.7 22 18.8z" opacity=".2"/><path fill="#2F9BC1" d="M29.5 27.7c-4.5 5.2-4.5 13 0 18.2 4.7 5.4 12.4 6.2 18.1 2.6 1.7-1.1 3.6-1.7 5.6-1.8 0-.9-.3-1.7-1-2.4a3.32 3.32 0 0 0-4.7 0c-2 2-4.7 3.1-7.5 3.1s-5.5-1.1-7.5-3.1-3.1-4.7-3.1-7.5 1.1-5.5 3.1-7.5c4.1-4.1 10.9-4.1 15 0 1.3 1.3 3.4 1.3 4.7 0 .6-.6 1-1.5 1-2.3-2-.1-3.9-.7-5.6-1.8-5.7-3.7-13.4-2.9-18.1 2.5zM110.4 54.8c10-10 10-26.2-.1-36.2-10-9.9-26.2-9.6-36.1.4L62.7 30.4c-1.9 1.9-4.2 3-6.8 3.4 0 .9.3 1.8 1 2.5 1.3 1.3 3.4 1.3 4.7 0l15.1-15.1c4.2-4.2 9.8-6.5 15.7-6.5 5.9 0 11.5 2.3 15.7 6.5 4.2 4.2 6.5 9.8 6.5 15.7 0 5.9-2.3 11.5-6.5 15.7-8.7 8.7-22.7 8.7-31.4 0a3.32 3.32 0 0 0-4.7 0c-.7.7-1 1.5-1 2.4 2.2.2 4.3 1 6.1 2.4 10.1 7.3 24.2 6.5 33.3-2.6z" opacity=".2"/><path fill="#2F9BC1" d="M103 36.8c0 2.8-1.1 5.5-3.1 7.5s-4.7 3.1-7.5 3.1-5.5-1.1-7.5-3.1a3.32 3.32 0 0 0-4.7 0c-.7.7-1 1.5-1 2.4 2 .1 3.9.7 5.6 1.8 5.7 3.7 13.4 2.8 18.1-2.6 4.5-5.2 4.5-13 0-18.2-4.7-5.4-12.4-6.2-18.1-2.6-1.7 1.1-3.6 1.7-5.6 1.8 0 .9.3 1.7 1 2.4 1.3 1.3 3.4 1.3 4.7 0 4.1-4.1 10.9-4.1 15 0 2 2 3.1 4.7 3.1 7.5z" opacity=".2"/><path fill="#fff" d="M29.8 80.1c0 .8-.2 1.4-.7 1.8s-1.2.6-2 .6h-.6V85H25v-7.1h2.3c.9 0 1.5.2 2 .6.2.3.5.8.5 1.6zm-3.4 1.1h.5c.5 0 .8-.1 1-.3.2-.2.3-.5.3-.8 0-.4-.1-.6-.3-.8s-.5-.3-.9-.3h-.7v2.2zM34.1 82.2V85h-1.5v-7.1h2.1c1 0 1.7.2 2.1.5.5.4.7.9.7 1.6 0 .4-.1.8-.3 1.1-.2.3-.6.6-1 .8 1.1 1.6 1.8 2.6 2.1 3.1h-1.7l-1.7-2.7h-.8zm0-1.2h.5c.5 0 .8-.1 1.1-.2s.3-.4.3-.8c0-.3-.1-.6-.3-.7-.2-.1-.6-.2-1.1-.2h-.5V81zM47.1 81.4c0 1.2-.3 2.1-.9 2.7-.6.6-1.4.9-2.5.9s-1.9-.3-2.5-.9c-.6-.6-.9-1.5-.9-2.7s.3-2.1.9-2.7c.6-.6 1.4-.9 2.5-.9s1.9.3 2.5.9.9 1.5.9 2.7zm-5.2 0c0 .8.2 1.4.5 1.8.3.4.8.6 1.4.6 1.2 0 1.8-.8 1.8-2.4 0-1.6-.6-2.4-1.8-2.4-.6 0-1.1.2-1.4.6-.3.4-.5 1-.5 1.8zM49.4 87.1c-.3 0-.6 0-.9-.1v-1.3c.3.1.5.1.7.1.3 0 .6-.1.7-.3.1-.2.2-.5.2-1v-6.7h1.5v6.7c0 .8-.2 1.5-.6 1.9s-.9.7-1.6.7zM59 85h-4.1v-7.1H59v1.2h-2.6v1.6h2.4v1.2h-2.4v1.8H59V85zM65 79c-.6 0-1 .2-1.3.6-.3.4-.5 1-.5 1.8 0 1.6.6 2.4 1.8 2.4.5 0 1.1-.1 1.8-.4v1.3c-.6.2-1.2.4-2 .4-1 0-1.8-.3-2.4-.9-.5-.6-.8-1.5-.8-2.7 0-.7.1-1.4.4-1.9.3-.6.7-1 1.2-1.3.5-.3 1.1-.4 1.8-.4s1.4.2 2.1.5l-.5 1.2c-.3-.1-.5-.2-.8-.3s-.5-.3-.8-.3zM72.6 85h-1.5v-5.9h-1.9v-1.3h5.4v1.3h-1.9V85zM85.4 83c0 .6-.2 1.1-.7 1.5-.5.4-1.1.6-1.9.6-.8 0-1.4-.1-2-.4v-1.4c.5.2.9.4 1.2.5.3.1.6.1.9.1.3 0 .6-.1.8-.2.2-.1.3-.3.3-.6 0-.1 0-.3-.1-.4l-.3-.3c-.2-.1-.5-.3-.9-.5s-.8-.4-1-.6c-.2-.2-.4-.4-.5-.7-.1-.2-.2-.5-.2-.9 0-.6.2-1.1.6-1.5.4-.4 1-.5 1.8-.5.4 0 .7 0 1.1.1s.7.2 1.1.4l-.5 1.2c-.4-.2-.7-.3-.9-.3-.5-.1-.8-.1-1-.1-.3 0-.5.1-.7.2-.2.1-.2.3-.2.5 0 .1 0 .2.1.3l.3.3c.1.1.5.3 1 .5.7.3 1.1.6 1.4 1 .2.3.3.7.3 1.2zM88.2 85v-7.1h1.5V85h-1.5zM95.7 85h-1.5v-5.9h-1.9v-1.3h5.4v1.3h-1.9V85zM104.4 85h-4.1v-7.1h4.1v1.2h-2.6v1.6h2.4v1.2h-2.4v1.8h2.6V85z"/></svg>