<svg version="1.1" id="Layer_1" xmlns="http://www.w3.org/2000/svg" x="0" y="0" viewBox="0 0 512.001 512.001" xml:space="preserve"><path d="M262.506 358.225h-16.41c-34.047 0-61.903 27.857-61.903 61.903 0 34.047 27.856 61.903 61.903 61.903h16.41c34.047 0 61.903-27.857 61.903-61.903s-27.856-61.903-61.903-61.903z" fill="#9a4c00"/><path d="M243.133 420.502c0-26.772 17.228-49.708 41.143-58.291a61.345 61.345 0 00-21.769-3.986h-16.41c-34.047 0-61.903 27.856-61.903 61.903s27.856 61.903 61.903 61.903h16.41a61.334 61.334 0 0020.76-3.613c-23.389-8.859-40.134-31.521-40.134-57.916z" fill="#663a00"/><path d="M391.125 164.125s50.202 4.444 72.092 76.041c4.039 13.21-5.087 26.741-18.844 27.984-23.638 2.137-58.924.368-80.719-23.802.776-.547 27.471-80.223 27.471-80.223z" fill="#aa6100"/><g fill="#9a4c00"><path d="M418.771 175.173c9.851 26.591 9.44 57.757-1.233 93.1-19.005-1.713-39.417-7.881-53.884-23.925.776-.548 27.471-80.223 27.471-80.223s12.447 1.105 27.646 11.048z"/><path d="M432.472 231.628c-8.535-16.853-22.391-33.307-33.13-40.943 0 0-8.556 40.106-10.704 46.314 7.15 3.784 24.709 5.224 36.677 5.773 5.879.268 9.817-5.895 7.157-11.144z"/></g><path d="M425.824 220.156c-.183 7.275-.925 14.787-2.221 22.531-11.873-.605-28.145-2.082-34.962-5.689 2.148-6.208 10.704-46.314 10.704-46.314 8.264 5.877 18.367 16.985 26.479 29.472z" fill="#663a00"/><path d="M335.599 218.727s255.509-22.672 151.51-181.698c-8.728-13.345-29.466-6.415-28.323 9.491 3.521 49.009-18.191 106.934-144.503 99.884l21.316 72.323z" fill="#ffeb99"/><g fill="#ffe477"><path d="M459.046 42.152c2.517-12.69 20.182-17.173 28.063-5.123 103.999 159.026-151.51 181.698-151.51 181.698l-12.032-40.823c70.277 2.12 170.342-14.771 135.479-135.752z"/><path d="M335.599 218.727l-21.316-72.324c34.776 1.94 61.609-1.051 82.184-7.419a112.159 112.159 0 019.913 12.374c9.719 14.086 15.8 29.839 18.251 47.172-44.376 16.232-89.032 20.197-89.032 20.197z"/></g><path d="M424.63 198.531c-44.376 16.231-89.033 20.197-89.033 20.197l-12.032-40.823c29.033.876 63.141-1.503 90.729-13.115 5.193 10.469 8.637 21.724 10.336 33.741z" fill="#ffda44"/><path d="M120.877 164.125s-50.202 4.444-72.092 76.041c-4.039 13.21 5.087 26.741 18.844 27.984 23.638 2.137 58.924.368 80.719-23.802-.776-.547-27.471-80.223-27.471-80.223z" fill="#aa6100"/><g fill="#9a4c00"><path d="M93.231 175.173c-9.851 26.591-9.44 57.757 1.233 93.1 19.005-1.713 39.417-7.881 53.884-23.925-.776-.548-27.471-80.223-27.471-80.223s-12.447 1.105-27.646 11.048z"/><path d="M79.529 231.628c8.535-16.853 22.391-33.307 33.13-40.943 0 0 8.556 40.106 10.704 46.314-7.15 3.784-24.709 5.224-36.677 5.773-5.879.268-9.816-5.895-7.157-11.144z"/></g><path d="M86.178 220.156c.183 7.275.925 14.787 2.221 22.531 11.873-.605 28.145-2.082 34.962-5.689-2.148-6.208-10.704-46.314-10.704-46.314-8.265 5.877-18.368 16.985-26.479 29.472z" fill="#663a00"/><path d="M176.402 218.727S-79.107 196.055 24.892 37.029c8.728-13.345 29.466-6.415 28.323 9.491-3.521 49.009 18.191 106.934 144.503 99.884l-21.316 72.323z" fill="#ffeb99"/><g fill="#ffe477"><path d="M52.955 42.152c-2.517-12.69-20.182-17.173-28.063-5.123-103.999 159.026 151.51 181.698 151.51 181.698l12.032-40.823c-70.276 2.12-170.342-14.771-135.479-135.752z"/><path d="M176.402 218.727l21.316-72.324c-34.776 1.94-61.609-1.051-82.184-7.419a112.159 112.159 0 00-9.913 12.374c-9.719 14.086-15.8 29.839-18.251 47.172 44.377 16.232 89.032 20.197 89.032 20.197z"/></g><path d="M87.371 198.531c44.376 16.231 89.033 20.197 89.033 20.197l12.032-40.823c-29.032.876-63.141-1.503-90.728-13.115-5.194 10.469-8.638 21.724-10.337 33.741z" fill="#ffda44"/><path d="M323.567 472.469c-24.739 0-44.866-20.127-44.866-44.866s20.127-44.866 44.866-44.866 44.866 20.127 44.866 44.866c0 24.74-20.127 44.866-44.866 44.866zm0-74.058c-16.097 0-29.192 13.096-29.192 29.192s13.096 29.192 29.192 29.192c16.097 0 29.192-13.096 29.192-29.192s-13.095-29.192-29.192-29.192z" fill="#ffcd00"/><path d="M256.001 114.202s-193.753-2.55-131.294 161.886c0 2.55 65.009 144.04 65.009 144.04h132.568s65.009-141.491 65.009-144.04c62.461-164.434-131.292-161.886-131.292-161.886z" fill="#cc7400"/><g fill="#aa6100"><path d="M255.863 114.201c-5.778-.038-192.653-.013-131.156 161.887 0 2.55 65.009 144.04 65.009 144.04h69.005c-19.144-41.768-63.674-139.167-63.674-141.391-38.218-100.613 9.866-144.978 60.816-164.536z"/><path d="M299.443 158.713c-13.836-3.33-29.848-5.322-42.851-5.329l-.397.008-.791-.008c-4.912 0-10.635.309-16.468.893a7.837 7.837 0 11-1.561-15.597c6.341-.634 12.605-.971 18.112-.971l.631.006.396-.006c6.81 0 24.982.562 46.597 5.765 4.208 1.012 6.858 5.26 5.785 9.453-2.043 7.988-8.836 5.934-9.453 5.786zm34.968 13.486c-3.365-2.011-7.091-3.911-11.076-5.648a7.837 7.837 0 116.261-14.369c4.596 2.003 8.922 4.211 12.859 6.565 3.715 2.22 5.071 7.123 2.704 10.748-4.179 6.397-9.488 3.459-10.748 2.704zM278.52 330.9h-48.438c-34.353 0-62.46 28.107-62.46 62.46s28.107 62.46 62.46 62.46h48.438c34.353 0 62.46-28.107 62.46-62.46s-28.107-62.46-62.46-62.46z"/></g><path d="M228.634 393.36c0-24.646 10.654-46.919 27.576-62.46h-26.127c-34.353 0-62.46 28.107-62.46 62.46s28.107 62.46 62.46 62.46h26.127c-16.922-15.541-27.576-37.814-27.576-62.46z" fill="#9a4c00"/><path d="M232.232 379.357c10.519 6.185 14.034 19.726 7.849 30.245s-19.726 14.034-30.245 7.849-22.092-24.463-15.908-34.982c6.185-10.519 27.784-9.296 38.304-3.112z" fill="#2d2d30"/><path d="M232.232 379.357c-10.519-6.184-32.119-7.407-38.303 3.112-1.472 2.504-1.929 5.449-1.643 8.564 8.861-1.877 20.115.043 26.842 3.997 8.446 4.965 12.362 14.672 10.382 23.752 4.277-1.775 8.043-4.881 10.57-9.18 6.185-10.52 2.671-24.061-7.848-30.245z" fill="#1d1d1f"/><g fill="#2d2d30"><path d="M276.37 379.357c-10.519 6.185-14.034 19.726-7.849 30.245 6.185 10.519 19.726 14.034 30.245 7.849 10.519-6.185 22.092-24.463 15.908-34.982-6.185-10.519-27.784-9.296-38.304-3.112z"/><circle cx="175.052" cy="256.001" r="18.271"/><circle cx="336.938" cy="256.001" r="18.271"/></g><path d="M276.37 379.357c10.519-6.184 32.119-7.407 38.303 3.112 1.472 2.504 1.929 5.449 1.643 8.564-8.861-1.877-20.115.043-26.842 3.997-8.446 4.965-12.362 14.672-10.382 23.752-4.277-1.775-8.043-4.881-10.57-9.18-6.185-10.52-2.671-24.061 7.848-30.245z" fill="#1d1d1f"/><path d="M294.375 427.604c0-12.632 8.066-23.412 19.317-27.469 2.691-5.797 3.704-11.862 1.531-16.607-20.763 3.924-36.521 22.188-36.521 44.076 0 24.739 20.127 44.866 44.866 44.866v-15.673c-16.098-.001-29.193-13.097-29.193-29.193z" fill="#ffcd00"/></svg>