<svg version="1.1" id="Layer_1" xmlns="http://www.w3.org/2000/svg" x="0" y="0" viewBox="0 0 512 512" xml:space="preserve"><circle cx="81.094" cy="84.198" r="55.557" fill="#ffc477"/><path d="M81.088 108.41c-13.352 0-24.216-10.863-24.216-24.216s10.863-24.216 24.216-24.216 24.217 10.863 24.217 24.216-10.863 24.216-24.217 24.216z" fill="#ffa733"/><circle cx="430.905" cy="84.198" r="55.557" fill="#ffc477"/><path d="M430.912 108.41c-13.353 0-24.217-10.863-24.217-24.216s10.863-24.216 24.217-24.216c13.352 0 24.215 10.863 24.215 24.216s-10.864 24.216-24.215 24.216z" fill="#ffa733"/><path d="M258.941 390.513h-5.883l-80.937 16.283s8.509 65.004 47.357 100.453c9.071 8.277 23.59 5.356 28.753-5.785 3.504-7.559 6.017-15.507 7.767-23.533 1.751 8.025 4.263 15.973 7.767 23.533 5.164 11.141 19.683 14.061 28.754 5.785 38.849-35.45 47.357-100.453 47.357-100.453l-80.935-16.283z" fill="#663a00"/><path d="M392.029 370.995s4.403 82.501-43.87 128.554c-13.313 12.701-35.343 5.011-38.053-13.188-3.488-23.421-14.555-55.497-46.126-87.898-.795-2.387 8.897-77.581 8.897-77.581l119.152 50.113z" fill="#9a4c00"/><path d="M270.386 340.524a6160.111 6160.111 0 012.491-19.641l119.152 50.112s3.361 63.013-28.015 109.639c-36.591-19.484-81.063-59.414-93.628-140.11z" fill="#663a00"/><path d="M119.971 370.995s-4.403 82.501 43.87 128.554c13.313 12.701 35.343 5.011 38.053-13.188 3.488-23.421 14.555-55.497 46.126-87.898.795-2.387-8.897-77.581-8.897-77.581l-119.152 50.113z" fill="#9a4c00"/><path d="M241.614 340.524a6160.111 6160.111 0 00-2.491-19.641l-119.152 50.112s-3.361 63.013 28.015 109.639c36.591-19.484 81.063-59.414 93.628-140.11z" fill="#663a00"/><path d="M406.899 346.545s4.453 51.864 16.613 89.134c4.938 15.135-9.49 29.378-24.493 24.053-37.219-13.211-87.729-47.228-98.607-132.848 1.504 0 49.224-50.11 49.224-50.11l57.263 69.771z" fill="#aa6100"/><path d="M349.642 276.773l57.265 69.772s4.453 51.864 16.613 89.134c.889 2.727 1.142 5.423.884 7.982-.432.01-43.277-2.453-53.45-39.834-8.962-32.93-23.675-67.785-43.793-103.62a5283.617 5283.617 0 0022.481-23.434z" fill="#9a4c00"/><path d="M105.101 348.718s-4.453 51.864-16.613 89.134c-4.938 15.135 9.49 29.378 24.493 24.053 37.219-13.211 87.729-47.228 98.607-132.848-1.504 0-49.224-50.11-49.224-50.11l-57.263 69.771z" fill="#aa6100"/><path d="M162.358 278.946l-57.265 69.772s-4.453 51.864-16.613 89.134c-.889 2.727-1.142 5.423-.884 7.982.432.01 42.232-1.753 53.45-39.834 9.644-32.737 23.675-67.785 43.793-103.62-11.557-11.964-22.481-23.434-22.481-23.434z" fill="#9a4c00"/><path d="M466.174 307.792s.766 44.056-22.531 93.598c-9.003 19.146-36.904 16.822-42.444-3.598-7.766-28.62-22.052-67.459-48.487-113.925.167-3.818 27.995-109.689 27.995-109.689l85.467 133.614zm-420.348 0s-.766 44.056 22.531 93.598c9.003 19.146 36.904 16.822 42.444-3.598 7.766-28.62 22.05-67.459 48.487-113.925-.167-3.818-27.995-109.689-27.995-109.689L45.826 307.792z" fill="#cc7400"/><path d="M72.021 354.941c28.073-15.937 60.186-44.06 81.91-93.445-8.128-32.12-22.637-87.317-22.637-87.317L45.826 307.792s-.389 22.497 7.888 53.414a52.041 52.041 0 0018.307-6.265zm367.958 0c-28.073-15.937-60.186-44.06-81.91-93.445 8.128-32.12 22.637-87.317 22.637-87.317l85.467 133.613s.389 22.497-7.888 53.414a52.043 52.043 0 01-18.306-6.265z" fill="#aa6100"/><path d="M483.817 301.667c-21.806-48.15-21.146-106.015-21.146-106.015C462.672 0 256 0 256 0S49.327 0 49.327 195.653c0 0 .661 57.864-21.145 106.015-8.048 17.771 11.397 35.644 28.363 26.013 39.058-22.172 84.035-71.136 90.609-177.541h217.691c6.574 106.405 51.551 155.369 90.609 177.541 16.966 9.63 36.411-8.242 28.363-26.014z" fill="#ee8700"/><path d="M49.327 195.654s.661 57.864-21.145 106.015c-4.541 10.026-.328 20.082 7.251 25.215 45.884-43.011 32.485-119.994 32.485-120.073-7.277-36.464-6.512-84.875-6.503-85.368-7.619 20.925-12.088 45.452-12.088 74.211zm413.345 0s-.661 57.864 21.145 106.015c4.541 10.026.328 20.082-7.251 25.215-45.882-43.011-32.485-119.994-32.485-120.073 7.277-36.464 6.512-84.875 6.503-85.368 7.619 20.925 12.088 45.452 12.088 74.211z" fill="#ff9811"/><path d="M268.328 286.462h-24.655c-32.37 0-58.855 26.485-58.855 58.855v10.339c0 32.37 26.485 58.855 58.855 58.855h24.655c32.37 0 58.855-26.485 58.855-58.855v-10.339c0-32.371-26.485-58.855-58.855-58.855z" fill="#ffdaaa"/><g fill="#ffc477"><path d="M230.272 355.656v-10.339c0-28.821 21.002-52.96 48.455-57.909a58.566 58.566 0 00-10.4-.946h-24.655c-32.37 0-58.855 26.485-58.855 58.855v10.339c0 32.37 26.485 58.855 58.855 58.855h24.655a58.48 58.48 0 0010.4-.946c-27.452-4.949-48.455-29.087-48.455-57.909z"/><path d="M327.183 355.656v-10.339c0-32.37-26.485-58.855-58.855-58.855h-24.655c-32.37 0-58.855 26.485-58.855 58.855v10.339c0 12.398 3.895 23.925 10.509 33.439 3.494.464 7.039.709 10.62.709 18.451 0 35.985-6.253 50.054-17.541 14.069 11.287 31.601 17.539 50.052 17.541h.007a80.75 80.75 0 0010.615-.708c6.612-9.515 10.508-21.042 10.508-33.44z"/></g><path d="M243.672 286.462c-32.37 0-58.855 26.485-58.855 58.855v10.339c0 12.398 3.895 23.925 10.509 33.439 3.494.464 7.039.708 10.62.708a80.049 80.049 0 0031.35-6.372 58.291 58.291 0 01-7.024-27.775v-10.339c0-28.821 21.002-52.96 48.455-57.909a58.566 58.566 0 00-10.4-.946h-24.655z" fill="#ffb655"/><path d="M258.975 333.121h-5.951c-13.049 0-23.724 10.676-23.724 23.724s10.676 23.724 23.724 23.724h5.951c13.049 0 23.724-10.676 23.724-23.724 0-13.049-10.676-23.724-23.724-23.724z" fill="#3e3d42"/><path d="M258.975 333.121h-5.951c-13.049 0-23.724 10.676-23.724 23.724 0 10.44 6.837 19.355 16.252 22.504a79.844 79.844 0 0010.447-7.085 79.745 79.745 0 0010.447 7.085c9.416-3.149 16.252-12.064 16.252-22.504.001-13.049-10.675-23.724-23.723-23.724z" fill="#2d2d30"/><path d="M339.622 84.562c-43.969-32.187-83.632 7.687-83.632 7.687-.39-.39-39.831-39.694-83.613-7.644-18.911 14.196-56.151 51.877-46.703 123.824l19.797 111.877c1.495 8.45 9.545 23.613 9.545 23.613 23.068 34.23 72.67 36.39 98.626 4.293l2.357-2.914 2.358 2.871c25.956 32.095 75.558 29.935 98.626-4.294 0 0 8.05-15.164 9.545-23.613l19.797-111.877c9.447-71.946-27.792-109.628-46.703-123.823z" fill="#ffc477"/><g fill="#ffb655"><path d="M172.378 84.626c-18.911 14.196-56.151 51.877-46.703 123.824l19.797 111.877c1.495 8.45 9.545 23.613 9.545 23.613 15.502 23.002 42.981 31.497 67.219 24.872a69.443 69.443 0 01-7.653-9.448s-8.975-16.906-10.642-26.328l-22.073-124.741c-9.56-72.807 23.761-114.143 45.764-132.994-.146-.049-.302-.113-.456-.173-14.995-4.876-34.426-5.414-54.798 9.498z"/><path d="M275.598 210.244a57.745 57.745 0 00-39.23 0c-77.931 28.175-91.3 81.154-93.486 95.519l2.574 14.542c1.495 8.45 9.545 23.613 9.545 23.613 23.068 34.23 72.67 36.39 98.626 4.293l2.357-2.914 2.358 2.871c25.956 32.095 75.558 29.935 98.626-4.294 0 0 8.05-15.164 9.545-23.613l2.606-14.727c-2.182-14.35-15.571-67.108-93.521-95.29z"/></g><path d="M214.582 359.385s-8.975-16.906-10.642-26.328l-17.033-96.258c-34.787 27.077-42.421 58.438-44.026 68.986l2.574 14.542c1.495 8.45 9.545 23.613 9.545 23.613 15.501 23.001 42.979 31.497 67.216 24.873a69.62 69.62 0 01-7.634-9.428z" fill="#ffa733"/><path d="M321.021 119.994c-5.455-4.585-9.507-7.184-9.966-7.446a7.837 7.837 0 117.755-13.621c1.395.794 6.429 3.817 12.654 9.379a7.837 7.837 0 01.623 11.065c-1.549 1.734-5.731 5.109-11.066.623zm26.865 52.85c-1.459-13.496-5.917-25.686-12.734-36.288a7.836 7.836 0 012.354-10.829 7.833 7.833 0 0110.829 2.354c8.106 12.609 13.19 27.036 15.109 42.878a7.837 7.837 0 01-6.837 8.723c-.319.038-7.903.737-8.721-6.838z" fill="#ffb655"/><path d="M253.637 348.212l2.358-2.916v-36.507l-61.67 61.086c21.196 4.039 44.24-3.025 59.312-21.663z" fill="#fff5cc"/><path d="M211.414 352.95l-17.088 16.926a62.036 62.036 0 0027.948-1.087 69.638 69.638 0 01-7.693-9.49c.001.002-1.384-2.612-3.167-6.349z" fill="#ffc477"/><path d="M258.355 348.212l-2.358-2.916v-36.507l61.67 61.086c-21.195 4.039-44.239-3.025-59.312-21.663z" fill="#fff5cc"/><path d="M299.887 283.226c-4.125-2.721-9.675-1.581-12.396 2.544l-7.283 11.046c-.6-.088-47.823-.087-48.425.002l-7.284-11.048a8.95 8.95 0 00-12.396-2.544c-4.125 2.72-5.264 8.269-2.545 12.396l13.88 21.053c6.034 13.333 16.426 28.423 32.561 28.423 16.155 0 26.553-15.128 32.584-28.473l13.848-21.002c2.72-4.128 1.581-9.677-2.544-12.397z" fill="#5f4d37"/><path d="M233.995 315.351a14.808 14.808 0 00-9.549 3.476c4.279 8.862 10.477 18.083 18.985 22.892a14.84 14.84 0 005.438-11.496c-.002-8.214-6.66-14.872-14.874-14.872zm44.009 0c3.637 0 6.965 1.309 9.549 3.476-4.279 8.862-10.477 18.083-18.985 22.892a14.84 14.84 0 01-5.438-11.496c.002-8.214 6.66-14.872 14.874-14.872zm-92.981-24.655c2.058 0 4.075.836 5.538 2.299a7.864 7.864 0 012.299 5.538 7.865 7.865 0 01-2.299 5.538 7.885 7.885 0 01-5.538 2.299 7.887 7.887 0 01-5.548-2.299 7.9 7.9 0 01-2.288-5.538c0-2.058.836-4.086 2.288-5.538a7.889 7.889 0 015.548-2.299zm141.954 0c2.058 0 4.075.836 5.538 2.299a7.864 7.864 0 012.299 5.538 7.865 7.865 0 01-2.299 5.538 7.883 7.883 0 01-5.538 2.299 7.887 7.887 0 01-5.548-2.299 7.9 7.9 0 01-2.288-5.538c0-2.058.836-4.086 2.288-5.538a7.887 7.887 0 015.548-2.299zm-158.455 28.351c2.058 0 4.075.836 5.538 2.299 1.463 1.452 2.299 3.479 2.299 5.538s-.836 4.086-2.299 5.538a7.885 7.885 0 01-5.538 2.299 7.887 7.887 0 01-5.548-2.299 7.9 7.9 0 01-2.288-5.538 7.9 7.9 0 012.288-5.538 7.889 7.889 0 015.548-2.299zm33.002 0c2.058 0 4.075.836 5.538 2.299 1.463 1.452 2.299 3.479 2.299 5.538s-.836 4.086-2.299 5.538a7.885 7.885 0 01-5.538 2.299 7.887 7.887 0 01-5.548-2.299 7.9 7.9 0 01-2.288-5.538 7.9 7.9 0 012.288-5.538 7.889 7.889 0 015.548-2.299zm108.952 0c2.058 0 4.075.836 5.538 2.299 1.463 1.452 2.299 3.479 2.299 5.538s-.836 4.086-2.299 5.538a7.883 7.883 0 01-5.538 2.299 7.887 7.887 0 01-5.548-2.299 7.9 7.9 0 01-2.288-5.538 7.9 7.9 0 012.288-5.538 7.887 7.887 0 015.548-2.299zm33.002 0c2.058 0 4.075.836 5.538 2.299 1.463 1.452 2.299 3.479 2.299 5.538s-.836 4.086-2.299 5.538a7.883 7.883 0 01-5.538 2.299 7.887 7.887 0 01-5.548-2.299 7.9 7.9 0 01-2.288-5.538 7.9 7.9 0 012.288-5.538 7.889 7.889 0 015.548-2.299z" fill="#3e3d42"/><g fill="#663a00"><circle cx="322.424" cy="200.422" r="14.247"/><circle cx="189.576" cy="200.422" r="14.247"/></g></svg>