<svg version="1.1" id="Layer_1" xmlns="http://www.w3.org/2000/svg" x="0" y="0" viewBox="0 0 512.001 512.001" xml:space="preserve"><path d="M51.005 147.22S41.51 260.037 61.748 346.173c3.437 14.629 16.506 24.955 31.533 24.955h22.999c12.732 0 21.775-12.373 17.922-24.507-10.425-32.838-24.688-98.885-16.323-199.401H51.005z" fill="#a78966"/><path d="M49.329 178.594c4.918.684 22.608 3.634 41.527 12.685 9.467 4.529 17.642 9.831 24.508 15.883-.027-18.406.72-38.375 2.514-59.943H51.005c0 .001-1.017 12.092-1.676 31.375z" fill="#957856"/><path d="M197.291 158.072s-23.477-48.684-91.76-58.481c-28.818-4.135-54.526 18.517-54.526 47.63 0 0 102.363 9.947 119.945 96.406l26.341-85.555zM134.6 348.063c-4.399 16.117-27.446-4.582-27.446-4.582s-61.023-47.663-79.516-161.823c-1.826-11.278-17.902-11.85-20.523-.729-11.818 50.159-16.317 128.288 47.624 180.142a45.014 45.014 0 0028.344 10.059h33.204c12.227-.001 21.045-11.413 18.313-23.067z" fill="#c0ab91"/><path d="M12.995 173.761c-2.747 1.177-5.027 3.548-5.88 7.167C-4.703 231.087-9.202 309.216 54.739 361.07a45.014 45.014 0 0028.344 10.059h19.583c-77.309-49.116-91.237-135.144-89.671-197.368zm127.592-64.619a158.795 158.795 0 00-34.154 54.862c27.199 13.491 55.941 37.453 64.516 79.622l26.341-85.556c.001.002-15.203-31.507-56.703-48.928z" fill="#b39a7c"/><path d="M157.743 173.174s-37.073-7.215-78.438 22.158c-8.965 6.367-10.592 19.023-3.527 27.448 10.878 12.972 30.891 29.64 63.272 33.321-.897-.634 18.693-82.927 18.693-82.927z" fill="#ffb655"/><path d="M144.77 228.68c-36.198-13.846-72.808-14.431-73.052-14.434a18.696 18.696 0 004.054 8.534c10.878 12.972 30.891 29.64 63.272 33.321-.344-.242 2.314-12.448 5.726-27.421z" fill="#cc7400"/><path d="M460.996 147.22s9.495 112.817-10.743 198.953c-3.437 14.629-16.506 24.955-31.533 24.955h-22.999c-12.732 0-21.775-12.373-17.922-24.507 10.425-32.838 24.688-98.885 16.323-199.401h66.874z" fill="#a78966"/><path d="M462.672 178.594c-4.918.684-22.608 3.634-41.527 12.685-9.467 4.529-17.642 9.831-24.508 15.883.027-18.406-.72-38.375-2.514-59.943h66.873c0 .001 1.016 12.092 1.676 31.375z" fill="#957856"/><path d="M314.71 158.072s23.477-48.684 91.76-58.481c28.818-4.135 54.526 18.517 54.526 47.63 0 0-102.363 9.947-119.945 96.406l-26.341-85.555zm62.691 189.991c4.399 16.117 27.446-4.582 27.446-4.582s61.023-47.663 79.516-161.824c1.826-11.278 17.902-11.85 20.523-.729 11.818 50.159 16.317 128.288-47.624 180.143a45.014 45.014 0 01-28.344 10.059h-33.204c-12.228-.001-21.046-11.413-18.313-23.067z" fill="#c0ab91"/><path d="M499.006 173.761c2.747 1.177 5.027 3.548 5.88 7.167 11.818 50.159 16.317 128.288-47.624 180.143a45.014 45.014 0 01-28.344 10.059h-19.583c77.309-49.117 91.236-135.145 89.671-197.369zm-127.592-64.619a158.795 158.795 0 0134.154 54.862c-27.199 13.491-55.941 37.453-64.516 79.622L314.71 158.07c0 .002 15.203-31.507 56.704-48.928z" fill="#b39a7c"/><path d="M354.257 173.174s37.073-7.215 78.438 22.158c8.965 6.367 10.592 19.023 3.527 27.448-10.878 12.972-30.891 29.64-63.272 33.321.898-.634-18.693-82.927-18.693-82.927z" fill="#ffb655"/><path d="M367.231 228.68c36.198-13.846 72.808-14.431 73.052-14.434a18.696 18.696 0 01-4.054 8.534c-10.878 12.972-30.891 29.64-63.272 33.321.344-.242-2.315-12.448-5.726-27.421z" fill="#cc7400"/><circle cx="256" cy="371.127" r="49.74" fill="#ffc477"/><path d="M238.602 371.129c0-21.808 14.04-40.324 33.569-47.037A49.652 49.652 0 00256 321.389c-27.47 0-49.74 22.27-49.74 49.74s22.27 49.74 49.74 49.74a49.63 49.63 0 0016.171-2.703c-19.529-6.713-33.569-25.23-33.569-47.037z" fill="#ffb655"/><path d="M383.989 219.114c0-70.683-57.3-127.983-127.983-127.983-68.622 0-124.625 54.008-127.833 121.835 0 0-6.923 92.824 70.064 166.045 16.173 15.382 41.696 14.761 57.201-1.158 15.505 15.919 41.384 16.905 57.201 1.158 71.35-71.035 71.35-149.786 71.35-159.897z" fill="#ffdaaa"/><path d="M232.819 259.88c0-55.078-39.686-99.939-89.316-101.806-8.945 16.453-14.393 35.082-15.331 54.895 0 0-5.472 73.41 47.463 141.162 33.572-15.293 57.184-51.776 57.184-94.251zm102.349 93.604c48.81-63.257 48.821-125.457 48.821-134.366 0-22.102-5.603-42.895-15.466-61.038-49.644 1.849-89.342 46.713-89.342 101.802 0 41.946 23.083 77.982 55.987 93.602zM189.737 148.255a7.837 7.837 0 011.266-11.01c12.121-9.62 26.485-16.524 41.538-19.967a7.837 7.837 0 013.493 15.279c-12.786 2.924-24.465 9.496-35.287 16.964-4.306 2.972-9.463.683-11.01-1.266zm76.349-17.372c-2.872 0-5.763-.511-8.642-.557a7.836 7.836 0 01-7.71-7.961c.069-4.327 3.617-7.75 7.961-7.71 3.384.054 6.802.274 10.159.654a7.836 7.836 0 016.904 8.67c-.455 4-2.387 6.904-8.672 6.904z" fill="#ffc477"/><g fill="#3e3d42"><path d="M247.6 384.126a40.818 40.818 0 007.837-6.28 41.149 41.149 0 007.837 6.288v-51.579H247.6v51.571z"/><circle cx="173.412" cy="247.056" r="16.207"/><circle cx="337.899" cy="247.056" r="16.207"/><path d="M283.213 328.56c0 15.029-12.184 33.26-27.212 33.26-15.029 0-27.212-18.23-27.212-33.26 0-15.029 12.184-15.119 27.212-15.119 15.028.001 27.212.09 27.212 15.119z"/></g><path d="M242.068 332.299a7.895 7.895 0 00-4.451-4.032 7.894 7.894 0 00-5.984.3 7.868 7.868 0 00-2.752 2.188c.659 8.752 5.159 18.21 11.757 24.363a7.85 7.85 0 003.207-.739 7.867 7.867 0 004.023-4.446 7.889 7.889 0 00-.29-5.989l-5.51-11.645zm41.06-1.64a7.863 7.863 0 00-2.667-2.093 7.899 7.899 0 00-5.984-.3 7.892 7.892 0 00-4.451 4.032l-5.509 11.644a7.88 7.88 0 00-.29 5.989 7.87 7.87 0 004.023 4.446 7.489 7.489 0 003.126.727c6.615-6.173 11.118-15.671 11.752-24.445z" fill="#2d2d30"/></svg>