<svg version="1.1" id="Layer_1" xmlns="http://www.w3.org/2000/svg" x="0" y="0" viewBox="0 0 511.999 511.999" xml:space="preserve"><path d="M42.481 211.86s0 99.519.523 182.536c.273 43.174 37.479 77.541 78.755 90.207 55.997 17.184 148.81 27.992 266.678-22.088L257.46 137.427 42.481 211.86z" fill="#ff5023"/><path d="M388.437 462.514L257.459 137.426l-128.903 44.631 30.966 215.003s11.38 58.609 71.464 101.745c45.136-1.304 98.116-11.081 157.451-36.291z" fill="#ff3501"/><circle cx="42.481" cy="254.338" r="42.481" fill="#ffc477"/><path d="M42.481 274.151c-10.923 0-19.811-8.887-19.811-19.81 0-10.923 8.888-19.81 19.811-19.81s19.81 8.887 19.81 19.81c.002 10.923-8.885 19.81-19.81 19.81z" fill="#ffb655"/><path d="M173.965 53.674c-72.316 0-131.484 59.167-131.484 131.484V294.17c0 72.316 59.167 131.484 131.484 131.484 72.316 0 131.484-59.167 131.484-131.484V185.158c0-72.316-59.168-131.484-131.484-131.484z" fill="#ffdaaa"/><path d="M305.449 185.157c0-72.316-59.167-131.484-131.484-131.484-27.431 0-52.965 8.519-74.1 23.034a147.284 147.284 0 00-2.768 15.284c-5.326 41.743 8.822 66.475 32.487 102.806 5.217 10.489 6.948 19.013 9.119 29.707 3.809 18.764 8.125 40.033 30.704 69.851 22.58 29.82 41.925 39.656 58.91 48.493 28.727 14.946 43.34 36.525 44.344 37.949 20.383-23.179 32.788-53.523 32.788-86.626V185.157z" fill="#ffc477"/><path d="M173.965 246.247c-11.638 0-21.159 9.521-21.159 21.159v21.159c0 11.638 9.522 21.159 21.159 21.159s21.159-9.522 21.159-21.159v-21.159c0-11.638-9.521-21.159-21.159-21.159z" fill="#ffb655"/><path d="M169.407 294.357c4.007 5.291 7.908 9.945 11.714 14.088 8.139-2.953 14.004-10.754 14.004-19.88v-21.159c0-11.638-9.522-21.159-21.159-21.159-11.638 0-21.159 9.521-21.159 21.159v.837c4.061 7.967 9.399 16.604 16.6 26.114z" fill="#ffa733"/><circle cx="109.819" cy="234.527" r="17.607" fill="#663a00"/><path d="M141.685 340.795s-10.784 49.538 32.28 49.538 32.28-49.538 32.28-49.538h-64.56z" fill="#ff5023"/><path d="M173.965 332.396s-19.587-7.888-32.28 11.422l32.28 19.31 32.28-19.31c-12.693-19.31-32.28-11.422-32.28-11.422z" fill="#ff3501"/><g fill="#cd2a00"><path d="M141.683 340.795s-10.626 48.843 31.4 49.521c-13.158-18.471-8.069-38.524-3.424-49.521h-27.976z"/><path d="M141.685 343.818l23.369 13.979c1.732-14.536 8.911-25.4 8.911-25.4s-19.587-7.889-32.28 11.421z"/></g><path d="M173.965 370.963a7.826 7.826 0 01-4.023-1.111l-35.967-21.514a7.836 7.836 0 01-2.702-10.749 7.835 7.835 0 0110.749-2.702l31.945 19.109 31.944-19.109a7.84 7.84 0 0110.749 2.702 7.84 7.84 0 01-2.702 10.749l-35.966 21.514a7.85 7.85 0 01-4.027 1.111z" fill="#554431"/><path d="M173.965 53.674c-72.316 0-131.484 59.167-131.484 131.484v26.701c24.705-4.176 34.73-39.563 49.877-47.375 35.043-18.073 52.38 7.919 67.18-19.623L184 54.055a132.261 132.261 0 00-10.035-.381z" fill="#ff5023"/><path d="M173.965 53.674c-27.431 0-52.965 8.519-74.1 23.034a147.284 147.284 0 00-2.768 15.284c-3.408 26.714 1.168 46.461 11.101 66.74 24.805-5.242 38.961 9.168 51.34-13.869L184 54.056a131.742 131.742 0 00-10.035-.382z" fill="#ff3501"/><path d="M480.915 291.943c-37.977-50.153-62.075-31.905-100.052-82.058-37.839-49.971-18.43-64.09-51.455-118.017-26.344-41.003-52.783-71.801-99.741-77.792-57.132-7.289-99.37 24.089-106.658 81.221-4.215 33.038 6.474 51.542 29.235 86.429 18.027 35.044 6.029 54.658 37.987 96.862 37.977 50.153 62.075 31.905 100.052 82.058 19.831 26.189 22.736 43.679 26.391 61.554 6.647 32.501 40.554 51.562 71.762 40.314l87.539-31.55c26.469-9.539 41.451-37.727 34.2-64.912-6.085-22.818-4.849-41.873-29.26-74.109z" fill="#ff6243"/><path d="M398.491 401.828c-4.03-19.706-7.232-38.985-29.093-67.857-41.865-55.288-68.43-35.171-110.296-90.46-35.23-46.525-22.005-68.147-41.876-106.779-25.092-38.459-36.876-58.857-32.229-95.277 1.188-9.313 3.225-18 6.027-26.025-36.909 8.11-62.492 36.591-68.012 79.866-4.215 33.038 6.474 51.542 29.235 86.429 18.027 35.044 6.029 54.658 37.987 96.862 37.977 50.153 62.075 31.905 100.052 82.058 19.831 26.189 22.736 43.679 26.391 61.554 6.647 32.5 40.554 51.562 71.762 40.314l46.845-16.882c-18.097-7.156-32.532-22.964-36.793-43.803zm-24.32-141.432c-4.525-3.442-8.467-7.928-12.517-12.359a7.838 7.838 0 0111.57-10.575 151.72 151.72 0 0011.341 11.201 7.837 7.837 0 01.67 11.062c-1.551 1.749-6.198 4.372-11.064.671zm75.506 55.201c-13.599-17.96-22.788-22.683-36.696-29.831-5.362-2.755-11.434-5.878-17.863-9.837a7.837 7.837 0 01-2.562-10.783 7.834 7.834 0 0110.782-2.561c5.911 3.641 11.448 6.487 16.803 9.239 14.683 7.546 26.276 13.506 42.031 34.311 2.612 3.45 1.875 8.289-1.517 10.979-4.296 3.408-9.436.519-10.978-1.517z" fill="#ff5023"/></svg>