<svg version="1.1" id="Layer_1" xmlns="http://www.w3.org/2000/svg" x="0" y="0" viewBox="0 0 512 512" xml:space="preserve"><path d="M477.276 42.78s10.758 123.772-32.293 255.728c-5.013 15.366-27.61 11.985-27.829-4.176-.799-59.345-5.844-146.525-24.754-236.449.114-.292 84.876-15.103 84.876-15.103z" fill="#ffeb99"/><path d="M478.468 78.469c-10.63 6.856-26.412 18.193-42.214 33.806-11.402 11.266-21.082 22.963-29.044 35.048-3.598-28.851-8.407-58.986-14.81-89.44.114-.292 84.876-15.103 84.876-15.103s1.15 13.248 1.192 35.689z" fill="#ffe477"/><path d="M421.162 2.263c27.525-9.347 56.045 11.449 56.113 40.518 0 0-121.525 61.462-128.412 181.974-.282-.894-35.595-29.647-57.421-47.354v-33.624c.001.001 32.182-108.394 129.72-141.514z" fill="#fff5cc"/><path d="M34.724 42.78S23.966 166.552 67.017 298.508c5.013 15.366 27.61 11.985 27.829-4.176.799-59.345 5.844-146.525 24.754-236.449-.114-.292-84.876-15.103-84.876-15.103z" fill="#ffeb99"/><path d="M33.532 78.469c10.63 6.856 26.412 18.193 42.214 33.806 11.402 11.266 21.082 22.963 29.044 35.048 3.598-28.851 8.407-58.986 14.81-89.44-.114-.292-84.876-15.103-84.876-15.103s-1.151 13.248-1.192 35.689z" fill="#ffe477"/><path d="M90.838 2.263C63.313-7.084 34.793 13.712 34.724 42.78c0 0 121.525 61.462 128.412 181.974.282-.894 35.595-29.647 57.421-47.354v-33.623c0 .001-32.181-108.394-129.719-141.514z" fill="#fff5cc"/><path d="M44.814 15.252c-6.212 7.353-10.065 16.88-10.09 27.528 0 0 121.525 61.462 128.412 181.974.188-.598 15.982-13.605 32.955-27.454v-15.169c0 .003-37.61-126.615-151.277-166.879zm422.371 0c6.212 7.353 10.066 16.88 10.09 27.528 0 0-121.525 61.462-128.412 181.974-.188-.598-15.982-13.605-32.955-27.454v-15.169c.001.003 37.611-126.615 151.277-166.879z" fill="#ffeb99"/><path d="M149.309 259.7s-52.74-11.403-75.36-65.929c-4.025-9.703 1.754-20.729 12.033-22.895 23.418-4.935 65.232-7.991 97.019 21.44-.864.864-33.692 67.384-33.692 67.384z" fill="#957856"/><path d="M163.294 231.454c-48.282-37.493-89.34-37.683-89.34-37.683 22.62 54.526 75.36 65.929 75.36 65.929s6.614-13.398 13.98-28.246z" fill="#806749"/><path d="M362.69 259.7s52.74-11.403 75.36-65.929c4.025-9.703-1.754-20.729-12.033-22.895-23.418-4.935-65.232-7.991-97.019 21.44.865.864 33.692 67.384 33.692 67.384z" fill="#957856"/><path d="M348.705 231.454c48.282-37.493 89.34-37.683 89.34-37.683-22.62 54.526-75.36 65.929-75.36 65.929s-6.613-13.398-13.98-28.246z" fill="#806749"/><path d="M256 131.111c-66.282 0-120.513 54.231-120.513 120.513v122.304c0 29.908 11.045 57.361 29.254 78.486h182.52c18.208-21.126 29.254-48.578 29.254-78.486V251.625c-.002-66.282-54.233-120.514-120.515-120.514z" fill="#b39a7c"/><path d="M198.661 452.416c7.708-8.743 12.408-20.193 12.408-32.694V256.37c0-27.257-22.301-49.558-49.559-49.558a49.087 49.087 0 00-18.762 3.72 119.436 119.436 0 00-7.262 41.095V373.93c0 29.908 11.045 57.361 29.253 78.486h33.922zm114.678 0c-7.708-8.744-12.408-20.194-12.408-32.694V256.37c0-27.257 22.301-49.558 49.56-49.558a49.087 49.087 0 0118.762 3.72 119.436 119.436 0 017.262 41.095V373.93c0 29.908-11.045 57.361-29.253 78.486h-33.923zm-83.353-286.451c-.8-4.254 1.823-8.391 6.059-9.279a97.303 97.303 0 0119.954-2.065 7.837 7.837 0 017.837 7.837 7.837 7.837 0 01-7.837 7.837c-5.636 0-11.265.582-16.734 1.729-.542.115-7.82 1.69-9.279-6.059zm87.315 32.422a84.642 84.642 0 00-3.896-4.169c-9.773-9.773-21.811-16.938-34.812-20.721a7.834 7.834 0 01-5.335-9.713c1.208-4.157 5.563-6.543 9.713-5.335 15.527 4.517 29.885 13.055 41.518 24.688a100.211 100.211 0 014.622 4.943c2.846 3.26 2.675 8.411-.75 11.057-4.965 3.834-9.511 1.025-11.06-.75z" fill="#a78966"/><g fill="#3e3d42"><circle cx="172.93" cy="270.973" r="18.142"/><circle cx="339.069" cy="270.973" r="18.142"/></g><path d="M256 399.693c-29.04 0-52.801 23.76-52.801 52.801v6.705C203.199 488.24 226.96 512 256 512c29.04 0 52.8-23.76 52.8-52.8v-6.705c0-29.041-23.76-52.802-52.8-52.802z" fill="#957856"/><path d="M248.13 459.2v-6.705c0-21.018 12.45-39.262 30.335-47.742A52.305 52.305 0 00256 399.696c-29.04 0-52.801 23.76-52.801 52.801v6.705C203.199 488.24 226.96 512 256 512c8.023 0 15.638-1.82 22.465-5.057-17.885-8.482-30.335-26.726-30.335-47.743z" fill="#806749"/><path d="M256 425.61c-14.824 0-26.883 12.06-26.883 26.883v6.706c0 14.824 12.06 26.883 26.883 26.883 14.823 0 26.883-12.06 26.883-26.883v-6.706c0-14.823-12.059-26.883-26.883-26.883z" fill="#2d2d30"/><path d="M248.13 452.505c0-9.797 2.713-18.987 7.41-26.872-14.612.247-26.424 12.202-26.424 26.872v6.706c0 14.669 11.813 26.625 26.424 26.872-4.699-7.886-7.41-17.076-7.41-26.872v-6.706z" fill="#1d1d1f"/><path d="M346.339 399.764c-17.099-20.987-67.322-49.087-90.339-35.072-23.016-14.015-73.239 14.085-90.339 35.072-17.712 21.739-14.447 53.721 7.292 71.433 21.739 17.712 53.721 14.447 71.433-7.292 4.012-4.925 8.035-11.725 11.613-19.488 3.578 7.764 7.601 14.565 11.613 19.488 17.712 21.739 49.693 25.004 71.433 7.292 21.74-17.712 25.005-49.693 7.294-71.433z" fill="#ffdaaa"/><path d="M209.399 434.403c1.922-20.049 12.927-49.444 28.465-73.381-25.05 1.485-58.801 22.301-72.203 38.751-17.712 21.739-14.447 53.721 7.292 71.433 13.75 11.203 31.596 14.004 47.338 9.055-8.311-13.196-12.494-29.133-10.892-45.858z" fill="#ffc477"/><path d="M248.13 361.658v97.121c2.735-4.133 5.408-9 7.87-14.341 2.442 5.299 5.093 10.13 7.803 14.241v-97.007c-2.839.606-5.387 1.578-7.803 3.042-2.359-1.437-5.005-2.452-7.87-3.056z" fill="#6a563d"/><path d="M283.212 351.844c0 15.029-12.184 33.26-27.212 33.26-15.029 0-27.212-18.23-27.212-33.26s12.184-15.119 27.212-15.119c15.029 0 27.212.09 27.212 15.119z" fill="#3e3d42"/><path d="M242.067 355.583a7.895 7.895 0 00-4.451-4.032 7.894 7.894 0 00-5.984.3 7.868 7.868 0 00-2.752 2.188c.659 8.752 5.159 18.21 11.757 24.363a7.85 7.85 0 003.207-.739 7.867 7.867 0 004.023-4.446 7.889 7.889 0 00-.29-5.989l-5.51-11.645zm41.054-1.561a7.869 7.869 0 00-2.737-2.17 7.899 7.899 0 00-5.984-.3 7.892 7.892 0 00-4.451 4.032l-5.509 11.644a7.88 7.88 0 00-.29 5.989 7.867 7.867 0 004.023 4.446 7.86 7.86 0 003.191.738c6.603-6.157 11.103-15.623 11.757-24.379z" fill="#2d2d30"/></svg>