<svg version="1.1" id="Layer_1" xmlns="http://www.w3.org/2000/svg" x="0" y="0" viewBox="0 0 511.999 511.999" xml:space="preserve"><path d="M388.02 176.203s23.989 37.288 42.749 74.602c4.71 9.368 18.552 7.693 20.866-2.535l8.381-37.041 41.514-2.691c9.782-.634 14.072-12.668 6.877-19.324-16.93-15.662-46.11-36.242-83.86-38.006.095.523-36.527 24.995-36.527 24.995z" fill="#ff3501"/><path d="M508.407 189.215c-16.93-15.662-46.11-36.242-83.86-38.006.058.319-13.475 9.501-24.084 16.645l36.421 21.857 23.133 21.519 41.514-2.691c9.781-.635 14.072-12.668 6.876-19.324z" fill="#cd2a00"/><path d="M153.618 73.529L185.52 36.47a60.623 60.623 0 0156.332-20.168c27.316 4.744 65.518 15.217 96.803 38.303a47.921 47.921 0 0117.797 25.971c3.74 13.739 8.743 32.291 8.743 32.291L153.618 73.529z" fill="#ff3501"/><path d="M275.58 24.226c-12.126-3.646-23.667-6.176-33.729-7.922a60.622 60.622 0 00-56.332 20.168L153.618 73.53l58 10.784 35.406-41.575a60.537 60.537 0 0128.556-18.513z" fill="#cd2a00"/><path d="M437.359 170.77a221.741 221.741 0 00-6.805-11.869c-15.865-25.802-44.948-61.391-89.468-84.832-43.834-23.577-103.099-35.024-163.55-15.806-43.806 13.458-88.237 43.574-118.254 88.608-.819 1.774-8.633 19.882 11.863 23.608-7.76 26.972 21.193 19.714 21.193 19.714 22.146-3.159 48.572-5.792 75.767-5.788 35.852-1.343 74.192-1.49 117.99-.515 37.877 1.243 79.74 3.302 135.48 13.331 13.016 2.341 22.601-13.639 15.784-26.451z" fill="#ff6d55"/><g fill="#ff5023"><path d="M436.884 189.71c3.189-5.307 3.891-12.52.475-18.94a221.741 221.741 0 00-6.805-11.869c-15.864-25.802-44.948-61.391-89.468-84.832-43.834-23.577-103.099-35.024-163.55-15.806-43.806 13.458-88.237 43.573-118.254 88.608-.819 1.774-8.633 19.882 11.863 23.608.002 0 158.87-150.323 365.739 19.231z"/><path d="M348.919 163.661c-4.629-.4-9.361-.77-14.066-1.099-4.344-.305-7.619-4.073-7.315-8.416s4.047-7.614 8.416-7.315c4.79.335 9.609.712 14.322 1.119 4.339.374 7.722 4.214 7.176 8.535-1.05 8.311-8.302 7.196-8.533 7.176zm-38.626-2.512c-6.966-.322-14.19-.6-23.421-.902l-.293-.008c-4.509-.1-8.976-.189-13.372-.266a7.885 7.885 0 01-7.746-8.022c.076-4.355 3.646-7.8 8.022-7.746 4.42.078 8.912.167 13.491.269l.375.01c9.344.306 16.632.587 23.672.912 4.35.201 7.955 3.909 7.513 8.24-.768 7.513-8.118 7.52-8.241 7.513z"/></g><path d="M199.526 156.311c-13.673-4.476-21.128-19.187-16.653-32.859 4.474-13.673 19.187-21.128 32.859-16.653 13.673 4.474 41.282 25.784 36.807 39.456s-39.34 14.531-53.013 10.056z" fill="#ff3501"/><path d="M207.411 134.686c-10.039-3.286-16.719-12.092-17.793-21.952a25.919 25.919 0 00-6.745 10.718c-4.476 13.673 2.981 28.384 16.653 32.859 13.673 4.476 48.538 3.617 53.014-10.056 1.246-3.808 0-8.208-2.737-12.671-12.635 4.751-32.764 4.253-42.392 1.102z" fill="#cd2a00"/><circle cx="108.182" cy="137.104" r="21.581" fill="#fff"/><path d="M108.18 144.991c-2.071 0-4.1-.841-5.572-2.313-1.472-1.461-2.313-3.501-2.313-5.572s.841-4.111 2.313-5.572a7.932 7.932 0 015.572-2.313c2.082 0 4.111.841 5.583 2.313 1.461 1.461 2.302 3.501 2.302 5.572s-.841 4.111-2.302 5.572a7.94 7.94 0 01-5.583 2.313z" fill="#3e3d42"/><path d="M123.979 335.796S99.99 298.508 81.23 261.194c-4.71-9.368-18.552-7.693-20.866 2.535l-8.381 37.041-41.514 2.691c-9.782.634-14.072 12.668-6.877 19.324 16.93 15.662 46.11 36.242 83.86 38.006-.095-.523 36.527-24.995 36.527-24.995z" fill="#0074e8"/><path d="M3.592 322.785c16.93 15.662 46.11 36.242 83.86 38.006-.058-.319 13.475-9.501 24.084-16.645l-36.421-21.857-23.133-21.519-41.514 2.691c-9.781.634-14.071 12.668-6.876 19.324zm354.79 115.685l-31.903 37.059a60.623 60.623 0 01-56.332 20.168c-27.316-4.744-65.518-15.217-96.803-38.303a47.925 47.925 0 01-17.797-25.971c-3.741-13.739-8.743-32.291-8.743-32.291l211.578 39.338z" fill="#2488ff"/><path d="M236.42 487.774c12.126 3.646 23.667 6.176 33.729 7.922a60.622 60.622 0 0056.332-20.168l31.903-37.058-58-10.784-35.406 41.575a60.56 60.56 0 01-28.558 18.513z" fill="#0074e8"/><path d="M74.64 341.229a221.741 221.741 0 006.805 11.869c15.865 25.802 44.948 61.391 89.468 84.832 43.834 23.577 103.099 35.024 163.55 15.806 43.807-13.458 88.239-43.573 118.255-88.608.819-1.774 8.633-19.882-11.863-23.608 7.76-26.972-21.193-19.714-21.193-19.714-22.146 3.159-48.572 5.792-75.767 5.788-35.852 1.343-74.192 1.49-117.99.515-37.877-1.243-79.74-3.302-135.48-13.331-13.017-2.341-22.602 13.64-15.785 26.451z" fill="#57a4ff"/><g fill="#9bc9ff"><path d="M75.115 322.29c-3.189 5.307-3.891 12.52-.475 18.94a221.741 221.741 0 006.805 11.869c15.864 25.802 44.948 61.391 89.468 84.832 43.834 23.577 103.099 35.024 163.55 15.806 43.807-13.458 88.239-43.573 118.255-88.607.819-1.774 8.633-19.882-11.863-23.608-.002-.001-158.871 150.322-365.74-19.232z"/><path d="M176.046 365.169c-4.79-.335-9.609-.712-14.322-1.119a7.882 7.882 0 01-7.176-8.535c.374-4.339 4.208-7.553 8.534-7.177 4.629.4 9.361.77 14.066 1.099 4.344.305 7.755 4.084 7.315 8.416-.743 7.316-8.229 7.329-8.417 7.316zm62.472 2.625c-4.42-.078-8.912-.167-13.491-.269l-.375-.011c-9.344-.306-16.632-.587-23.672-.911a7.885 7.885 0 01-7.513-8.24c.2-4.35 3.926-7.719 8.24-7.513 6.966.322 14.19.6 23.421.902l.293.008c4.509.1 8.976.189 13.372.266 4.355.077 8.043 3.678 7.746 8.022-.527 7.746-7.974 7.746-8.021 7.746z"/></g><path d="M312.473 355.688c13.673 4.476 21.128 19.187 16.653 32.859s-19.187 21.128-32.859 16.653c-13.673-4.474-41.282-25.784-36.807-39.456 4.474-13.67 39.341-14.53 53.013-10.056z" fill="#2488ff"/><path d="M304.588 377.313c10.039 3.286 16.719 12.092 17.793 21.952a25.919 25.919 0 006.745-10.718c4.476-13.673-2.981-28.384-16.653-32.859-13.673-4.476-48.538-3.617-53.014 10.056-1.246 3.808 0 8.208 2.737 12.671 12.635-4.751 32.764-4.253 42.392-1.102z" fill="#0074e8"/><circle cx="403.817" cy="374.895" r="21.581" fill="#fff"/><path d="M403.819 367.008c2.071 0 4.1.841 5.572 2.313a7.913 7.913 0 012.313 5.572 7.913 7.913 0 01-2.313 5.572 7.932 7.932 0 01-5.572 2.313 7.939 7.939 0 01-5.583-2.313 7.95 7.95 0 01-2.302-5.572 7.95 7.95 0 012.302-5.572 7.944 7.944 0 015.583-2.313z" fill="#3e3d42"/></svg>