<svg version="1.1" id="Layer_1" xmlns="http://www.w3.org/2000/svg" x="0" y="0" viewBox="0 0 512.003 512.003" xml:space="preserve"><ellipse transform="rotate(156.708 456.174 113.465)" cx="456.172" cy="113.464" rx="53.039" ry="68.924" fill="#aa6100"/><path d="M504.884 92.508c-4.279-9.938-10.093-18.578-16.836-25.596l-.005.005c-7.41 27.276-13.525 79.009-21.365 113.252 5.726.004 11.377-1.072 16.745-3.382 26.905-11.582 36.514-49.316 21.461-84.279z" fill="#9a4c00"/><path d="M315.067 37.15c63.859-27.492 137.914 1.988 165.406 65.847s-1.988 137.914-65.847 165.406c-63.859 27.492-210.114 29.094-237.607-34.765S251.208 64.643 315.067 37.15z" fill="#cc7400"/><path d="M415.039 177.842c-54.649 34.261-168.414 57.724-242.371 38.061.533 6.175 1.932 12.119 4.351 17.736 27.492 63.859 173.748 62.257 237.607 34.765s93.34-101.547 65.847-165.406c-.274-.638-22.88 48.165-65.434 74.844zm-94.775-108.8a7.835 7.835 0 014.099-10.296 103.651 103.651 0 0116.485-5.518c4.207-1.023 8.444 1.56 9.465 5.766s-1.56 8.444-5.766 9.465c-4.731 1.149-9.328 3.002-13.987 4.683-5.074 1.831-9.019-1.135-10.296-4.1zm104.425 20.97c-16.637-14.987-37.475-23.97-59.904-23.97a7.837 7.837 0 010-15.674c26.478 0 51.594 10.052 70.724 28.303a7.836 7.836 0 01.26 11.08c-1.54 1.614-6.316 4.552-11.08.261z" fill="#aa6100"/><ellipse transform="rotate(156.708 201.764 222.997)" cx="201.763" cy="222.997" rx="60.227" ry="88.293" fill="#9a4c00"/><path d="M223.149 272.695c-21.348 12.558-50.353.554-63.628-30.278-13.274-30.832-1.724-57.616 20.831-69.129 11.654-5.949 54.075 92.774 42.797 99.407z" fill="#663a00"/><path d="M225.679 212.691c13.274 30.833 5.907 56.373-2.529 60.004-8.435 3.632-32.051-8.57-45.326-39.403-13.274-30.833-5.907-56.373 2.529-60.004 8.436-3.632 32.052 8.569 45.326 39.403z" fill="#2d2d30"/><path d="M195.064 225.324c-9.266-21.523-8.469-40.456-4.277-51.169-4.327-1.638-8.008-1.91-10.433-.866-8.435 3.632-15.803 29.171-2.529 60.004 13.274 30.833 36.89 43.034 45.326 39.403 2.547-1.097 4.993-4.202 6.805-8.836-10.727-4.063-25.434-16.565-34.892-38.536z" fill="#1d1d1f"/><path d="M214.578 431.6v3.774c0 11.494-9.404 20.898-20.898 20.898H20.898C9.404 456.273 0 446.868 0 435.375V431.6c0-11.494 9.404-20.898 20.898-20.898H193.68c11.494 0 20.898 9.405 20.898 20.898z" fill="#57a4ff"/><path d="M193.68 410.702H20.898c-.965 0-.939 30.507 12.278 45.57H193.68c11.494 0 20.898-9.404 20.898-20.898V431.6c0-11.493-9.404-20.898-20.898-20.898z" fill="#2488ff"/><path d="M226.639 215.022c-17.142 6.059-31.46 18.12-40.439 33.648a75.268 75.268 0 00-10.142 37.793l-.383 169.808 19.761-.052c25.35 0 26.192-29.258 26.192-39.326V286.464c0-8.759 5.812-17.685 6.191-18.289 5.67-9.005 8.36-29.339-1.18-53.153z" fill="#57a4ff"/><path d="M61.719 332.678c-14.437 0-22.785-9.404-22.785-20.898v-14.047c0-11.494 8.869-20.898 22.454-20.898s23.116 9.404 23.116 20.898v14.047c0 11.494-8.348 20.898-22.785 20.898z" fill="#9bc9ff"/><g fill="#2488ff"><path d="M226.639 215.022a75.596 75.596 0 00-17.938 9.199v15.637s16.017 6.356 19.118 28.316c5.67-9.004 8.36-29.338-1.18-53.152z"/><path d="M186.202 248.671a75.271 75.271 0 00-10.142 37.793l-.383 169.81 19.761-.052c9.063-9.133 9.645-36.311 9.645-36.311v-141.82c0-3.809.716-7.45 2.008-10.808 4.087-10.619 14.005-18.367 25.814-19.289.314-9.351-1.348-20.696-6.265-32.972-17.142 6.061-31.46 18.121-40.438 33.649z"/></g><path d="M225.679 212.69c-3.499-8.127-7.719-14.947-12.188-20.536-16.053 1.511-30.654 8.055-42.227 18.03-16.134 13.903-26.38 34.463-26.38 57.384v141.818c0 16.647-13.543 30.19-30.19 30.19s-30.19-13.543-30.19-30.19v-28.172c0-12.584-10.201-22.785-22.785-22.785s-22.785 10.201-22.785 22.785v28.172c0 41.774 33.985 75.76 75.76 75.76 75.76 0 75.76-75.76 75.76-75.76V267.567c0-3.809.716-7.45 2.008-10.808 4.357-11.323 15.343-19.382 28.182-19.382l11.798-.043c-.885-7.533-2.987-15.872-6.763-24.644z" fill="#9bc9ff"/><path d="M232.443 237.334c-.886-7.532-2.987-15.872-6.764-24.643-3.499-8.127-7.719-14.947-12.188-20.536a75.1 75.1 0 00-27.229 7.945c6.556 6.473 13.007 15.429 17.995 27.018a94.142 94.142 0 014.444 12.743 29.977 29.977 0 0111.942-2.483l11.8-.044z" fill="#57a4ff"/></svg>