<svg version="1.1" id="Layer_1" xmlns="http://www.w3.org/2000/svg" x="0" y="0" viewBox="0 0 511.999 511.999" xml:space="preserve"><path d="M506.974 282.382l-48.104-48.104c-6.701-6.701-17.666-6.701-24.367 0-6.701 6.701-6.701 17.666 0 24.367l48.104 48.104c6.701 6.701 17.666 6.701 24.367 0 6.701-6.701 6.701-17.666 0-24.367z" fill="#ff6243"/><path d="M341.607 263.432h104.624c9.476 0 17.229-7.753 17.229-17.229 0-9.476-7.753-17.229-17.229-17.229H341.607c-9.476 0-17.229 7.753-17.229 17.229 0 9.474 7.753 17.229 17.229 17.229z" fill="#ff3501"/><path d="M482.519 344.249l-44.72-51.266c-6.23-7.141-17.169-7.887-24.311-1.658-7.141 6.23-7.887 17.169-1.658 24.31l44.72 51.266c6.23 7.141 17.169 7.887 24.31 1.658 7.143-6.23 7.889-17.169 1.659-24.31z" fill="#ff6243"/><path d="M318.825 314.09l104.381 7.119c9.454.645 17.717-6.563 18.362-16.017.645-9.454-6.563-17.717-16.017-18.362l-104.381-7.119c-9.454-.645-17.717 6.563-18.362 16.017-.646 9.455 6.563 17.718 16.017 18.362z" fill="#ff3501"/><path d="M444.883 402.104l-40.24-54.852c-5.606-7.64-16.444-9.306-24.084-3.701-7.64 5.606-9.306 16.444-3.701 24.084l40.24 54.852c5.606 7.64 16.444 9.306 24.084 3.701 7.641-5.606 9.307-16.443 3.701-24.084z" fill="#ff6243"/><path d="M284.313 358.257l103.41 15.89c9.366 1.439 18.207-5.047 19.646-14.413s-5.047-18.207-14.413-19.646l-103.41-15.89c-9.366-1.439-18.207 5.047-19.647 14.413-1.438 9.365 5.048 18.206 14.414 19.646z" fill="#ff3501"/><path d="M398.477 455.366l-36.898-57.154c-5.14-7.961-15.859-10.27-23.821-5.129-7.961 5.14-10.269 15.859-5.129 23.821l36.898 57.154c5.14 7.961 15.859 10.27 23.821 5.129 7.96-5.141 10.269-15.86 5.129-23.821z" fill="#ff6243"/><path d="M240.807 402.025l102.279 22.026c9.264 1.995 18.476-3.952 20.471-13.216 1.995-9.264-3.952-18.476-13.216-20.471l-102.279-22.026c-9.264-1.995-18.476 3.952-20.471 13.216-1.996 9.263 3.952 18.475 13.216 20.471z" fill="#ff3501"/><path d="M248.062 368.337l102.279 22.026c1.325.285 2.573.734 3.748 1.293-12.435 10.953-25.93 19.721-40.141 26.119l-73.141-15.752c-9.264-1.995-15.212-11.207-13.216-20.471 1.995-9.263 11.207-15.209 20.471-13.215zM269.9 338.61c1.439-9.366 10.281-15.852 19.646-14.413l103.41 15.89c.63.097 1.243.233 1.845.394a191.474 191.474 0 01-21.476 31.454l-89.014-13.678c-9.364-1.44-15.851-10.281-14.411-19.647zm51.27-58.9l93.342 6.366c-2.229 11.484-5.599 22.841-10.018 33.857l-85.668-5.843c-9.454-.645-16.662-8.908-16.017-18.362.644-9.455 8.906-16.663 18.361-16.018zm20.437-50.738h74.117c1.322 7.655 1.994 15.762 1.994 24.328 0 3.372-.116 6.751-.323 10.131h-75.788c-9.476 0-17.229-7.753-17.229-17.23 0-9.476 7.753-17.229 17.229-17.229z" fill="#cd2a00"/><path d="M5.026 282.382l48.104-48.104c6.701-6.701 17.666-6.701 24.367 0 6.701 6.701 6.701 17.666 0 24.367l-48.104 48.104c-6.701 6.701-17.666 6.701-24.367 0-6.701-6.701-6.701-17.666 0-24.367z" fill="#ff6243"/><path d="M170.392 263.432H65.768c-9.476 0-17.229-7.753-17.229-17.229 0-9.476 7.753-17.229 17.229-17.229h104.624c9.476 0 17.229 7.753 17.229 17.229.001 9.474-7.753 17.229-17.229 17.229z" fill="#ff3501"/><path d="M29.48 344.249l44.72-51.266c6.23-7.141 17.169-7.887 24.31-1.658 7.141 6.23 7.887 17.169 1.658 24.31l-44.72 51.266c-6.23 7.141-17.169 7.887-24.31 1.658-7.141-6.23-7.887-17.169-1.658-24.31z" fill="#ff6243"/><path d="M193.174 314.09l-104.381 7.119c-9.454.645-17.717-6.563-18.362-16.017-.645-9.454 6.563-17.717 16.017-18.362l104.381-7.119c9.454-.645 17.717 6.563 18.362 16.017.646 9.455-6.563 17.718-16.017 18.362z" fill="#ff3501"/><path d="M67.117 402.104l40.24-54.852c5.605-7.64 16.444-9.306 24.084-3.701 7.64 5.606 9.306 16.444 3.701 24.084l-40.24 54.852c-5.605 7.64-16.444 9.306-24.084 3.701-7.642-5.606-9.307-16.443-3.701-24.084z" fill="#ff6243"/><path d="M227.686 358.257l-103.41 15.89c-9.366 1.439-18.207-5.047-19.647-14.413-1.439-9.366 5.047-18.207 14.413-19.646l103.41-15.89c9.366-1.439 18.207 5.047 19.647 14.413 1.439 9.365-5.046 18.206-14.413 19.646z" fill="#ff3501"/><path d="M113.523 455.366l36.898-57.154c5.14-7.961 15.859-10.27 23.821-5.129 7.961 5.14 10.27 15.859 5.129 23.821l-36.898 57.154c-5.14 7.961-15.859 10.27-23.821 5.129-7.961-5.141-10.269-15.86-5.129-23.821z" fill="#ff6243"/><path d="M271.193 402.025l-102.279 22.026c-9.264 1.995-18.476-3.952-20.471-13.216-1.995-9.264 3.952-18.476 13.216-20.471l102.279-22.026c9.264-1.995 18.476 3.952 20.471 13.216 1.995 9.263-3.952 18.475-13.216 20.471z" fill="#ff3501"/><path d="M263.938 368.337l-102.279 22.026a17.072 17.072 0 00-3.748 1.293c12.435 10.953 25.93 19.721 40.141 26.119l73.141-15.752c9.264-1.995 15.212-11.207 13.216-20.471-1.995-9.263-11.207-15.209-20.471-13.215zm-21.839-29.727c-1.439-9.366-10.281-15.852-19.646-14.413l-103.41 15.89c-.63.097-1.243.233-1.845.394a191.474 191.474 0 0021.476 31.454l89.014-13.678c9.365-1.44 15.851-10.281 14.411-19.647zm-51.27-58.9l-93.341 6.367c2.229 11.484 5.599 22.841 10.018 33.857l85.668-5.843c9.454-.645 16.662-8.908 16.017-18.362-.644-9.456-8.906-16.664-18.362-16.019zm-20.437-50.738H96.276c-1.322 7.655-1.994 15.762-1.994 24.328 0 3.372.116 6.751.323 10.131h75.787c9.476 0 17.229-7.753 17.229-17.23.001-9.476-7.753-17.229-17.229-17.229z" fill="#cd2a00"/><path d="M288.833 55.505s-22.498 23.402 47.213 71.923l23.922-34.367-71.135-37.556z" fill="#ff3501"/><path d="M312.641 93.536l12.96-18.618 34.366 18.145-23.922 34.368c-12.292-8.556-21.707-16.328-28.894-23.33a46.54 46.54 0 015.49-10.565z" fill="#cd2a00"/><path d="M375.727 70.418s-47.563-43.061-92.298-40.209c-9.352.597-12.763 12.6-5.072 17.951a106129.85 106129.85 0 0176.002 52.956l21.368-30.698z" fill="#ff5023"/><path d="M336.452 59.328a46.715 46.715 0 019.688-10.21c17.598 10.448 29.587 21.3 29.587 21.3l-21.368 30.699s-14.265-9.948-31.641-22.059l13.734-19.73zm-41.446 190.574c10.967 12.17 29.898 13.155 42.068 2.188l95.15-85.74c12.17-10.967 13.155-29.897 2.188-42.068-10.967-12.17-29.897-13.155-42.068-2.188l-95.151 85.74c-12.169 10.967-13.154 29.897-2.187 42.068z" fill="#ff3501"/><path d="M353.604 71.267c8.451-12.142 25.34-14.759 37.052-5.724 30.728 23.704 74.096 64.032 53.254 93.975-20.841 29.943-73.72 3.277-106.619-17.308-12.54-7.846-15.949-24.593-7.498-36.734l23.811-34.209z" fill="#ff6243"/><path d="M216.994 249.902c-10.967 12.17-29.898 13.155-42.068 2.188l-95.15-85.74c-12.17-10.967-13.155-29.897-2.188-42.068 10.967-12.17 29.897-13.155 42.068-2.188l95.15 85.74c12.17 10.967 13.155 29.897 2.188 42.068zm6.173-194.397s22.498 23.402-47.213 71.923l-23.922-34.367 71.135-37.556z" fill="#ff3501"/><path d="M136.272 70.418s47.563-43.061 92.299-40.209c9.352.597 12.763 12.6 5.072 17.951a106129.85 106129.85 0 00-76.002 52.956l-21.369-30.698z" fill="#ff5023"/><path d="M199.359 93.536l-12.96-18.618-34.366 18.145 23.922 34.368c12.292-8.556 21.707-16.328 28.894-23.33a46.62 46.62 0 00-5.49-10.565z" fill="#cd2a00"/><path d="M175.548 59.328a46.715 46.715 0 00-9.688-10.21c-17.598 10.448-29.587 21.3-29.587 21.3l21.368 30.699s14.265-9.948 31.641-22.059l-13.734-19.73z" fill="#ff3501"/><path d="M158.396 71.267c-8.451-12.142-25.34-14.759-37.052-5.724-30.728 23.704-74.096 64.032-53.254 93.975s73.721 3.278 106.619-17.307c12.54-7.846 15.949-24.593 7.498-36.734l-23.811-34.21z" fill="#ff6243"/><path d="M164.788 80.451l-6.393-9.185c-8.451-12.142-25.34-14.759-37.052-5.725-30.728 23.704-74.096 64.032-53.254 93.975 4.903 7.043 11.577 10.953 19.348 12.547 6.664-32.3 76.563-91.102 77.351-91.612zm182.423 0l6.393-9.185c8.451-12.142 25.34-14.759 37.052-5.725 30.728 23.704 74.096 64.032 53.254 93.975-4.903 7.043-11.577 10.953-19.348 12.547-6.664-32.3-76.562-91.102-77.351-91.612z" fill="#ff5023"/><path d="M396.82 253.3c0 77.773-63.047 156.182-140.82 156.182S115.18 331.073 115.18 253.3s63.047-95.758 140.82-95.758 140.82 17.985 140.82 95.758z" fill="#ff6243"/><g fill="#ff5023"><path d="M327.329 345.335a7.837 7.837 0 01-.838-11.051 131.445 131.445 0 006.086-7.644 7.837 7.837 0 1112.617 9.299c-2.16 2.931-4.242 6.006-6.814 8.56-4.71 4.673-9.573 2.105-11.051.836zm-66.543 33.023c-.289-4.319 2.314-8.269 6.595-8.907 15.298-2.282 30.494-9.299 43.944-20.293a7.836 7.836 0 119.919 12.135c-15.636 12.781-33.462 20.963-51.551 23.661-.392.057-8.424.613-8.907-6.596zm-84.998-131.821c0-41.41 14.61-68.966 38.95-86.89-57.639 6.577-99.559 30.238-99.559 93.653 0 77.773 63.047 156.182 140.82 156.182 1.765 0 3.52-.054 5.269-.134-51.128-35.468-85.48-99.308-85.48-162.811zm154.101 61.101a7.885 7.885 0 01-5.538-2.299 7.864 7.864 0 01-2.299-5.538c0-2.058.836-4.086 2.299-5.538a7.883 7.883 0 015.538-2.299c2.069 0 4.086.836 5.548 2.299a7.9 7.9 0 012.288 5.538 7.902 7.902 0 01-2.288 5.538 7.889 7.889 0 01-5.548 2.299zm-15.225-78.666a7.885 7.885 0 01-5.538-2.299 7.865 7.865 0 01-2.299-5.538c0-2.058.836-4.086 2.299-5.538a7.883 7.883 0 015.538-2.299c2.069 0 4.086.836 5.548 2.299a7.902 7.902 0 012.288 5.538 7.902 7.902 0 01-2.288 5.538 7.887 7.887 0 01-5.548 2.299zM256 252.001a7.885 7.885 0 01-5.538-2.299 7.865 7.865 0 01-2.299-5.538c0-2.058.836-4.086 2.299-5.538a7.885 7.885 0 015.538-2.299c2.069 0 4.086.836 5.548 2.299a7.902 7.902 0 012.288 5.538 7.902 7.902 0 01-2.288 5.538 7.884 7.884 0 01-5.548 2.299zm23.545 85.777a7.885 7.885 0 01-5.538-2.299 7.864 7.864 0 01-2.299-5.538c0-2.058.836-4.086 2.299-5.538a7.883 7.883 0 015.538-2.299c2.069 0 4.086.836 5.548 2.299a7.9 7.9 0 012.288 5.538 7.902 7.902 0 01-2.288 5.538 7.887 7.887 0 01-5.548 2.299z"/><circle cx="280.9" cy="275.267" r="11.835"/><circle cx="237.881" cy="303.939" r="11.835"/><circle cx="205.531" cy="255.999" r="11.835"/><circle cx="348.128" cy="255.999" r="11.835"/></g><path d="M192.545 180.471l21.115 21.244c5.079 5.111 13.783 2.844 15.726-4.094l7.714-27.553-44.555 10.403zm126.822 0l-21.115 21.244c-5.079 5.111-13.783 2.844-15.726-4.094l-7.714-27.553 44.555 10.403z" fill="#ff3501"/><circle cx="211.759" cy="162.23" r="26.509" fill="#d1e7f8"/><path d="M211.76 170.068a7.885 7.885 0 01-5.538-2.299 7.865 7.865 0 01-2.299-5.538c0-2.058.836-4.086 2.299-5.538a7.885 7.885 0 015.538-2.299c2.069 0 4.086.836 5.548 2.299a7.902 7.902 0 012.288 5.538 7.902 7.902 0 01-2.288 5.538 7.893 7.893 0 01-5.548 2.299z" fill="#3e3d42"/><circle cx="300.241" cy="162.23" r="26.509" fill="#d1e7f8"/><path d="M300.24 170.068a7.885 7.885 0 01-5.538-2.299 7.865 7.865 0 01-2.299-5.538c0-2.058.836-4.086 2.299-5.538a7.885 7.885 0 015.538-2.299c2.069 0 4.086.836 5.548 2.299a7.902 7.902 0 012.288 5.538 7.902 7.902 0 01-2.288 5.538 7.895 7.895 0 01-5.548 2.299z" fill="#3e3d42"/></svg>