<svg version="1.1" id="Layer_1" xmlns="http://www.w3.org/2000/svg" x="0" y="0" viewBox="0 0 512 512" xml:space="preserve"><path transform="rotate(-108.658 470.985 213.375)" fill="#3e3d42" d="M376.556 205.529H565.37v15.672H376.556z"/><path fill="#2d2d30" d="M479.934 215.488l-31.758-94.058-14.85 5.015 46.608 138.037z"/><path transform="rotate(-161.342 410.568 213.375)" fill="#3e3d42" d="M402.708 118.956h15.672V307.77h-15.672z"/><path fill="#2d2d30" d="M401.566 264.483l46.609-138.038-14.85-5.015-31.759 94.058z"/><path fill="#57565c" d="M432.912 122.295h15.673v188.98h-15.673z"/><g fill="#3e3d42"><path transform="rotate(-161.342 41.051 211.745)" d="M33.212 117.326h15.673V306.14H33.212z"/><path transform="rotate(-108.658 101.463 211.75)" d="M7.052 203.903h188.814v15.673H7.052z"/></g><g fill="#2d2d30"><path d="M110.433 213.846l-31.758-94.057-14.85 5.014 46.608 138.038z"/><path d="M32.066 262.842l46.609-138.039-14.85-5.014-31.759 94.057z"/></g><path fill="#57565c" d="M63.413 122.295h15.673v188.98H63.413z"/><path d="M370.728 306.658l7.949 12.564a25.752 25.752 0 0021.763 11.984h80.621a25.753 25.753 0 0021.763-11.984l7.949-12.564c3.302-5.219-.448-12.029-6.624-12.029H377.351c-6.175.001-9.925 6.81-6.623 12.029zM1.227 305.017l7.949 12.564a25.752 25.752 0 0021.763 11.984h80.621a25.753 25.753 0 0021.763-11.984l7.949-12.564c3.302-5.219-.448-12.029-6.624-12.029H7.851c-6.176 0-9.926 6.81-6.624 12.029z" fill="#ff5023"/><path d="M421.13 319.428l-13.005-20.555a12.906 12.906 0 01-1.735-4.242h-29.039c-6.175 0-9.925 6.81-6.624 12.029l7.949 12.564a25.752 25.752 0 0021.763 11.984h31.851a42.102 42.102 0 01-11.16-11.78zm-369.501-1.641l-13.005-20.555a12.906 12.906 0 01-1.735-4.242H7.851c-6.175 0-9.925 6.81-6.624 12.029l7.949 12.564a25.752 25.752 0 0021.763 11.984H62.79a42.119 42.119 0 01-11.161-11.78z" fill="#ff3501"/><path d="M275.681 139.24c14.21 3.311 31.184 5.844 57.148 5.844 60.263 0 72.096-13.642 113.341-18.999 7.081-.92 7.198-11.111.138-12.184-14.365-2.18-32.306-3.094-52.601-.271 0 0-78.428 7.289-118.025-14.123.035.002-.001 39.733-.001 39.733zm-39.361 0c-14.21 3.311-31.184 5.844-57.148 5.844-60.263 0-72.096-13.642-113.341-18.999-7.081-.92-7.198-11.111-.138-12.184 14.365-2.18 32.306-3.094 52.601-.271 0 0 78.428 7.289 118.025-14.123-.036.002.001 39.733.001 39.733z" fill="#ffe477"/><path d="M179.171 129.757c-54.387 0-69.33-11.11-102.045-17.216-4.023.348-7.84.814-11.434 1.359-7.06 1.071-6.944 11.264.138 12.184 41.245 5.357 53.078 18.999 113.341 18.999 25.965 0 42.938-2.533 57.148-5.844l-.011-15.324c-14.207 3.31-31.179 5.842-57.137 5.842zm153.659 0c54.387 0 69.331-11.11 102.045-17.216 4.023.348 7.84.814 11.434 1.359 7.06 1.071 6.944 11.264-.138 12.184-41.245 5.357-53.078 18.999-113.341 18.999-25.965 0-42.938-2.533-57.148-5.844l.011-15.324c14.207 3.31 31.178 5.842 57.137 5.842z" fill="#ffda44"/><path d="M303.587 411.783h-29.413v-304.81h-36.348v304.808h-29.413c-9.995 0-18.174 8.178-18.174 18.174s8.178 18.174 18.174 18.174h95.173c9.995 0 18.174-8.178 18.174-18.174.001-9.995-8.178-18.172-18.173-18.172z" fill="#ffe477"/><path d="M256 106.973h-18.174v304.808h-28.923c-10.131 0-18.799 8.289-18.662 18.419.133 9.884 8.259 17.928 18.172 17.928h.055c-.022-.365-.055-.725-.055-1.095 0-9.996 8.178-18.174 18.174-18.174h16.874c6.925 0 12.539-5.614 12.539-12.539V106.973z" fill="#ffda44"/><path d="M237.826 106.973l12.715-39.138c1.718-5.287 9.198-5.287 10.916 0l12.715 39.138h-36.346z" fill="#ffe477"/><path d="M222.182 109.204l6.315 32.153a9.565 9.565 0 009.385 7.722h36.233a9.564 9.564 0 009.385-7.722l6.315-32.153c1.393-7.092-4.035-13.69-11.263-13.69h-45.109c-7.224 0-12.654 6.598-11.261 13.69z" fill="#ffd422"/><path d="M249.06 95.514h-15.615c-7.228 0-12.656 6.599-11.263 13.69l6.315 32.153a9.565 9.565 0 009.385 7.722h21.8a15.716 15.716 0 01-.42-1.621L249.06 95.514z" fill="#eebf00"/><path d="M273.191 317.105H238.81a14.345 14.345 0 00-13.694 10.068l-6.555 20.973a28.697 28.697 0 004.259 25.543l7.711 10.502a15.304 15.304 0 0012.336 6.246h26.269c4.872 0 9.453-2.32 12.336-6.246l7.711-10.502a28.696 28.696 0 004.259-25.543l-6.555-20.973a14.35 14.35 0 00-13.696-10.068z" fill="#ffd422"/><g fill="#eebf00"><path d="M239.338 347.674l4.546-30.569h-5.075a14.345 14.345 0 00-13.694 10.068l-6.555 20.973a28.697 28.697 0 004.259 25.543l7.711 10.502a15.303 15.303 0 0012.336 6.246h5.801l-7.598-22.851a43.038 43.038 0 01-1.731-19.912zm33.324 0l-4.546-30.569h5.075a14.345 14.345 0 0113.694 10.068l6.555 20.973a28.697 28.697 0 01-4.259 25.543l-7.711 10.502a15.303 15.303 0 01-12.336 6.246h-5.801l7.599-22.851a43.038 43.038 0 001.73-19.912z"/><path d="M222.818 373.689l7.711 10.502a15.303 15.303 0 0012.336 6.246h26.269c4.872 0 9.453-2.32 12.336-6.246l7.711-10.502a28.689 28.689 0 005.403-19.917h-77.169a28.692 28.692 0 005.403 19.917z"/></g><path d="M217.415 353.772a28.687 28.687 0 005.403 19.917l7.711 10.502a15.303 15.303 0 0012.336 6.246h5.801l-7.599-22.851a43.024 43.024 0 01-2.181-13.816h-21.473v.002zm77.169 0a28.687 28.687 0 01-5.403 19.917l-7.711 10.502a15.303 15.303 0 01-12.336 6.246h-5.801l7.599-22.851a43.024 43.024 0 002.181-13.816h21.473v.002z" fill="#ddb200"/></svg>