<svg version="1.1" id="Layer_1" xmlns="http://www.w3.org/2000/svg" x="0" y="0" viewBox="0 0 512.001 512.001" xml:space="preserve"><path d="M109.26 90.656l24.592-46.192c2.919-5.483 11.182-3.53 11.384 2.678.482 14.899-3.738 38.671-25.83 68.94.444-.238-10.146-25.426-10.146-25.426zm293.481 0L378.15 44.463c-2.919-5.483-11.182-3.53-11.384 2.678-.481 14.899 3.738 38.671 25.83 68.94-.444-.237 10.145-25.425 10.145-25.425z" fill="#ffb655"/><path d="M141.079 74.904l-18.515-9.239-13.304 24.991s10.59 25.188 10.145 25.425c11.349-15.55 17.974-29.379 21.674-41.177zm229.843 0l18.515-9.239 13.304 24.991s-10.59 25.188-10.145 25.425c-11.349-15.55-17.974-29.379-21.674-41.177zM261.755 205.159c-3.803 15.335-19.461 24.769-34.795 20.966L58.29 184.292c-15.335-3.803-24.769-19.461-20.966-34.795 3.803-15.335 19.461-24.769 34.795-20.966l168.67 41.833c15.334 3.803 24.769 19.461 20.966 34.795z" fill="#ffa733"/><path d="M62.788 77.02S83.697 18.785 123.052.896c8.227-3.739 16.581 4.924 12.467 12.969-14.442 28.242-40.611 79.568-40.611 79.568L62.788 77.02z" fill="#ffb655"/><path d="M91.166 49.749a45.104 45.104 0 00-12.879-4.286C68.059 62.343 62.788 77.02 62.788 77.02l32.12 16.414s7.618-14.942 16.901-33.136L91.166 49.749z" fill="#ffa733"/><path d="M81.995 67.695c-12.704-6.491-28.261-1.05-34.123 11.956-15.379 34.121-33.96 88.126-2.631 104.135s64.207-30.691 82.849-63.143c7.105-12.371 2.401-28.166-10.303-34.657L81.995 67.695z" fill="#ffc477"/><path d="M91.605 72.606l-9.61-4.911c-12.704-6.491-28.261-1.05-34.123 11.956-15.378 34.121-33.96 88.126-2.631 104.135 7.369 3.765 14.824 4.06 22.158 1.888-8.997-30.507 23.767-112.276 24.206-113.068z" fill="#ffb655"/><path d="M250.247 205.159c3.803 15.335 19.461 24.769 34.795 20.966l168.67-41.833c15.335-3.803 24.769-19.461 20.965-34.795-3.803-15.335-19.461-24.769-34.795-20.966l-168.67 41.833c-15.334 3.803-24.768 19.461-20.965 34.795z" fill="#ffa733"/><path d="M449.214 77.02S428.305 18.785 388.95.896c-8.227-3.739-16.581 4.924-12.467 12.969 14.442 28.242 40.611 79.568 40.611 79.568l32.12-16.413z" fill="#ffb655"/><path d="M420.836 49.749a45.104 45.104 0 0112.879-4.286c10.227 16.881 15.499 31.557 15.499 31.557l-32.12 16.414s-7.618-14.942-16.901-33.136l20.643-10.549z" fill="#ffa733"/><path d="M430.006 67.695c12.704-6.491 28.261-1.05 34.123 11.956 15.379 34.121 33.96 88.126 2.631 104.135s-64.207-30.691-82.849-63.143c-7.105-12.371-2.401-28.166 10.303-34.657l35.792-18.291z" fill="#ffc477"/><path d="M420.396 72.606l9.61-4.911c12.704-6.491 28.261-1.05 34.123 11.956 15.378 34.121 33.96 88.126 2.631 104.135-7.369 3.765-14.824 4.06-22.158 1.888 8.998-30.507-23.766-112.276-24.206-113.068z" fill="#ffb655"/><path d="M420.621 415.914l-48.084-48.084c-6.698-6.698-17.659-6.698-24.357 0s-6.698 17.659 0 24.357l48.084 48.084c6.698 6.698 17.659 6.698 24.357 0s6.698-17.659 0-24.357z" fill="#ffa733"/><path d="M255.323 396.97h104.58c9.472 0 17.222-7.75 17.222-17.222 0-9.472-7.75-17.222-17.222-17.222h-104.58c-9.472 0-17.222 7.75-17.222 17.222 0 9.473 7.75 17.222 17.222 17.222z" fill="#ffc477"/><path d="M489.882 288.747l-48.084-48.084c-6.698-6.698-17.659-6.698-24.357 0s-6.698 17.659 0 24.357l48.084 48.084c6.698 6.698 17.659 6.698 24.357 0s6.698-17.658 0-24.357z" fill="#ffa733"/><path d="M324.584 269.804h104.58c9.472 0 17.222-7.75 17.222-17.222 0-9.472-7.75-17.222-17.222-17.222h-104.58c-9.472 0-17.222 7.75-17.222 17.222 0 9.472 7.75 17.222 17.222 17.222z" fill="#ffc477"/><path d="M456.422 352.226l-48.084-48.084c-6.698-6.698-17.659-6.698-24.357 0s-6.698 17.659 0 24.357l48.084 48.084c6.698 6.698 17.659 6.698 24.357 0 6.698-6.699 6.698-17.659 0-24.357z" fill="#ffa733"/><path d="M291.124 333.282h104.58c9.472 0 17.222-7.75 17.222-17.222 0-9.472-7.75-17.222-17.222-17.222h-104.58c-9.472 0-17.222 7.75-17.222 17.222-.001 9.472 7.749 17.222 17.222 17.222z" fill="#ffc477"/><path d="M370.402 366.141c-2.913-2.256-6.551-3.615-10.498-3.615H255.323c-9.472 0-17.222 7.75-17.222 17.222 0 9.472 7.75 17.222 17.222 17.222h93.132c8.301-9.377 15.673-19.782 21.947-30.829zm22.726-67.304H291.124c-9.472 0-17.222 7.75-17.222 17.222 0 9.472 7.75 17.222 17.222 17.222h94.035c3.848-11.351 6.554-22.945 7.969-34.444zm1.145-63.478h-69.689c-9.472 0-17.222 7.75-17.222 17.222 0 9.472 7.75 17.222 17.222 17.222h69.689v-34.444z" fill="#ffb655"/><path d="M91.381 415.878l48.084-48.084c6.698-6.698 17.659-6.698 24.357 0s6.698 17.659 0 24.357l-48.084 48.084c-6.698 6.698-17.659 6.698-24.357 0s-6.698-17.658 0-24.357z" fill="#ffa733"/><path d="M256.679 396.935H152.097c-9.472 0-17.222-7.75-17.222-17.222 0-9.472 7.75-17.222 17.222-17.222h104.58c9.472 0 17.222 7.75 17.222 17.222.002 9.472-7.748 17.222-17.22 17.222z" fill="#ffc477"/><path d="M22.119 288.712l48.084-48.084c6.698-6.698 17.659-6.698 24.357 0s6.698 17.659 0 24.357l-48.084 48.084c-6.698 6.698-17.659 6.698-24.357 0s-6.698-17.659 0-24.357z" fill="#ffa733"/><path d="M187.417 269.768H82.837c-9.472 0-17.222-7.75-17.222-17.222 0-9.472 7.75-17.222 17.222-17.222h104.58c9.472 0 17.222 7.75 17.222 17.222 0 9.472-7.75 17.222-17.222 17.222z" fill="#ffc477"/><path d="M55.58 352.19l48.084-48.084c6.698-6.698 17.659-6.698 24.357 0s6.698 17.659 0 24.357l-48.084 48.084c-6.698 6.698-17.659 6.698-24.357 0s-6.698-17.659 0-24.357z" fill="#ffa733"/><path d="M220.877 333.247h-104.58c-9.472 0-17.222-7.75-17.222-17.222 0-9.472 7.75-17.222 17.222-17.222h104.58c9.472 0 17.222 7.75 17.222 17.222.002 9.472-7.748 17.222-17.222 17.222z" fill="#ffc477"/><path d="M118.873 298.802h102.004c9.472 0 17.222 7.75 17.222 17.222 0 9.472-7.75 17.222-17.222 17.222h-94.035c-3.847-11.351-6.554-22.944-7.969-34.444zm137.806 63.689h-102.01c1.412 11.5 4.116 23.093 7.962 34.445h94.047c9.472 0 17.222-7.75 17.222-17.222.001-9.473-7.749-17.223-17.221-17.223zm-69.262-127.167h-69.689v34.445h69.689c9.472 0 17.222-7.75 17.222-17.222 0-9.473-7.75-17.223-17.222-17.223z" fill="#ffb655"/><path d="M388.239 368.675v37.567c0 29.519-24.015 53.534-53.534 53.534s-53.535-24.014-53.535-53.533v-37.568h-52.223v37.567c0 58.166 47.591 105.757 105.757 105.757 58.166 0 105.757-47.591 105.757-105.757v-37.567h-52.222z" fill="#cc7400"/><g fill="#aa6100"><path d="M415.395 368.675v37.567c0 44.493-36.198 80.69-80.69 80.69s-80.691-36.197-80.691-80.689v-37.568h-25.067v37.567c0 58.166 47.591 105.757 105.757 105.757 58.166 0 105.757-47.591 105.757-105.757v-37.567h-25.066z"/><path d="M281.17 406.243v-37.568h-52.223v37.567c0 18.528 4.835 35.978 13.295 51.163l47.534-22.109a53.193 53.193 0 01-8.606-29.053zm83.868 44.079c-8.629 5.957-19.078 9.456-30.333 9.456-4.337 0-8.549-.532-12.589-1.509l-16.294 49.698a104.941 104.941 0 0028.883 4.035 104.81 104.81 0 0049.126-12.19l-18.793-49.49zm23.201-44.079c0 3.92-.436 7.738-1.239 11.421l46.784 25.457a104.778 104.778 0 006.678-36.878v-37.568h-52.223v37.568z"/></g><g fill="#9a4c00"><path d="M415.395 368.675v37.567a80.368 80.368 0 01-3.899 24.75l22.288 12.128a104.778 104.778 0 006.678-36.878v-37.567h-25.067zM313.638 484.126l-7.816 23.841a104.941 104.941 0 0028.883 4.035 104.81 104.81 0 0049.126-12.19l-8.971-23.624a80.167 80.167 0 01-40.155 10.746 80.554 80.554 0 01-21.067-2.808zm-59.624-90.384v-25.067h-25.067v37.567c0 18.528 4.835 35.978 13.295 51.163l22.761-10.587a80.17 80.17 0 01-10.989-40.576v-12.5z"/><path d="M449.549 356.069c1.22-15.29-1.893-40.237-24.62-70.392-3.173-4.209-9.799-2.564-10.767 2.617-1.972 10.557-8.134 25.754-25.127 43.381-5.807 6.023-10.332 15.246-10.332 25.005 0 19.568 15.863 35.431 35.431 35.431 32.695.002 35.419-35.837 35.415-36.042z"/></g><path d="M424.929 285.679c-1.269-1.683-3.089-2.417-4.879-2.376 6.433 48.75-20.184 101.088-23.005 104.418a35.27 35.27 0 0017.09 4.392c32.695 0 35.419-35.839 35.416-36.043 1.218-15.291-1.894-40.238-24.622-70.391z" fill="#663a00"/><path d="M256.001 68.563c-59.06 0-106.938 72.012-106.938 131.073v80.972c0 59.06 47.878 131.073 106.938 131.073s106.938-72.012 106.938-131.073v-80.972c0-59.061-47.878-131.073-106.938-131.073z" fill="#5f4d37"/><path d="M200.674 275.81v-80.972c0-47.748 31.295-103.953 74.492-123.735-6.219-1.652-12.623-2.539-19.166-2.539-59.06 0-106.938 72.012-106.938 131.073v80.972c0 59.06 47.878 131.073 106.938 131.073 11.313 0 22.213-2.65 32.446-7.336-49.913-13.264-87.772-76.019-87.772-128.536z" fill="#554431"/><path d="M256.001 68.563c-59.06 0-106.938 72.012-106.938 131.073v80.972c0 22.655 7.051 47.213 19.07 68.884H343.87c12.019-21.672 19.07-46.229 19.07-68.884v-80.972c-.001-59.061-47.879-131.073-106.939-131.073z" fill="#6a563d"/><path d="M200.674 194.838c0-47.748 31.295-103.953 74.491-123.735-6.219-1.652-12.623-2.539-19.166-2.539-59.06 0-106.938 72.012-106.938 131.073v80.972c0 22.655 7.051 47.213 19.07 68.884h54.383c-13.7-22.795-21.841-49.337-21.841-73.682v-80.973h.001z" fill="#5f4d37"/><path d="M256.001 68.563c-59.06 0-106.938 72.012-106.938 131.073v80.972c0 1.572.041 3.155.109 4.745h213.66c.067-1.59.109-3.172.109-4.745v-80.972c-.002-59.061-47.88-131.073-106.94-131.073z" fill="#806749"/><path d="M200.674 194.838c0-47.748 31.295-103.953 74.492-123.735-6.219-1.652-12.623-2.539-19.166-2.539-59.06 0-106.938 72.012-106.938 131.073v80.972c0 1.572.041 3.155.109 4.745h51.915c-.266-3.209-.41-6.394-.41-9.542v-80.973h-.002z" fill="#6a563d"/><path d="M256.001 68.563c-59.06 0-106.938 72.012-106.938 131.073v9.636H362.94v-9.636c-.001-59.061-47.879-131.073-106.939-131.073z" fill="#957856"/><path d="M275.167 71.102c-6.219-1.652-12.623-2.539-19.166-2.539-59.06 0-106.938 72.012-106.938 131.073v9.636h51.612v-14.433c-.001-47.749 31.296-103.954 74.492-123.737z" fill="#806749"/><circle cx="217.98" cy="125.681" r="26.498" fill="#d1e7f8"/><path d="M217.98 133.509a7.883 7.883 0 01-5.536-2.298c-1.462-1.452-2.298-3.478-2.298-5.536s.836-4.084 2.298-5.536a7.882 7.882 0 015.536-2.298c2.068 0 4.084.836 5.546 2.298 1.452 1.452 2.287 3.478 2.287 5.536s-.836 4.084-2.287 5.536a7.887 7.887 0 01-5.546 2.298z" fill="#3e3d42"/><circle cx="291.145" cy="125.681" r="26.498" fill="#d1e7f8"/><path d="M291.149 133.509a7.883 7.883 0 01-5.536-2.298c-1.462-1.452-2.298-3.478-2.298-5.536s.836-4.084 2.298-5.536a7.882 7.882 0 015.536-2.298c2.068 0 4.084.836 5.546 2.298 1.452 1.452 2.287 3.478 2.287 5.536s-.836 4.084-2.287 5.536a7.887 7.887 0 01-5.546 2.298z" fill="#3e3d42"/></svg>