<svg version="1.1" id="Layer_1" xmlns="http://www.w3.org/2000/svg" x="0" y="0" viewBox="0 0 512.001 512.001" xml:space="preserve"><path d="M104.858 406.723l6.936 46.951a14.652 14.652 0 01-4.135 12.503L66.146 507.69c-8.594 8.594-23.312 3.593-24.892-8.457l13.132-40.914 50.472-51.596z" fill="#ffde55"/><path d="M498.894 460.754H59.71a7.837 7.837 0 01-7.837-7.837V12.481h15.673V445.08h431.347l.001 15.674z" fill="#b39a7c"/><path d="M498.894 445.08h-70.46a332.928 332.928 0 0015.21 15.673h55.25V445.08zM67.547 84.124V12.481H51.873v56.521a333.109 333.109 0 0015.674 15.122z" fill="#957856"/><path d="M326.261 235.254c20.437 12.712 43.19 29.558 73.475 59.843 70.293 70.293 68.182 100.008 110.042 154.367 7.188 9.333-4.565 21.358-14.051 14.372-19.299-14.214-41.292-34.074-61.671-61.04 0 0-82.98-99.983-154.142-121.197.045.043 46.347-46.345 46.347-46.345zm-49.514-49.514c-12.712-20.437-29.558-43.19-59.843-73.475C146.611 41.97 116.896 44.082 62.536 2.221c-9.333-7.188-21.358 4.565-14.372 14.051 14.214 19.299 34.074 41.292 61.04 61.671 0 0 99.983 82.98 121.197 154.142-.042-.043 46.346-46.345 46.346-46.345z" fill="#cc7400"/><path d="M139.73 75.511c-26.883-20.317-46.702-42.237-60.907-61.493A338.494 338.494 0 0162.537 2.221C53.204-4.966 41.18 6.786 48.166 16.272c14.214 19.299 34.074 41.292 61.04 61.671 0 0 99.983 82.98 121.197 154.142-.021-.021 11.22-11.262 22.635-22.667C221.855 143.67 139.73 75.511 139.73 75.511zm296.76 296.76c20.317 26.883 42.237 46.702 61.493 60.907a338.358 338.358 0 0011.798 16.287c7.187 9.333-4.565 21.358-14.051 14.372-19.299-14.214-41.292-34.074-61.671-61.04 0 0-82.98-99.983-154.142-121.197.021.021 11.262-11.22 22.667-22.635 65.747 31.181 133.906 113.306 133.906 113.306z" fill="#aa6100"/><path d="M332.589 257.525l-27.836 27.836c-8.133 8.133-21.442 8.133-29.576 0l-48.537-48.537c-8.133-8.133-8.133-21.442 0-29.576l27.836-27.836c8.133-8.133 21.442-8.133 29.576 0l48.537 48.537c8.134 8.133 8.134 21.443 0 29.576z" fill="#5f4d37"/><path d="M226.64 207.249c-8.133 8.133-8.133 21.442 0 29.576l48.537 48.537c8.133 8.133 21.442 8.133 29.576 0l16.368-16.368-77.966-78.26-16.515 16.515z" fill="#554431"/><path d="M105.278 407.143l-46.951-6.936a14.652 14.652 0 00-12.503 4.135L4.309 445.855c-8.594 8.594-3.593 23.312 8.457 24.892l41.62-12.426 50.892-51.178z" fill="#ffe477"/><path d="M67.65 458.321a9.38 9.38 0 01-13.263 0s-6.918-6.918-.287-13.55l292.964-292.964 13.55 13.55L67.65 458.321z" fill="#ffc477"/><path d="M360.927 151.074c-8.329-8.329-21.96-8.33-30.288 0l-4.407 4.407c-8.329 8.329-8.329 21.96 0 30.288s21.96 8.329 30.288 0l4.407-4.407c8.329-8.328 8.329-21.958 0-30.288z" fill="#ffe477"/><path d="M413.952 84.919l-109.688 42.625c-8.402 3.265-8.691 15.048-.46 18.72l42.823 19.11 19.11 42.823c3.674 8.232 15.456 7.942 18.72-.46l42.625-109.688c3.197-8.225-4.905-16.327-13.13-13.13z" fill="#d8d7da"/><path d="M413.952 84.919l-109.688 42.625c-8.402 3.265-8.69 15.048-.46 18.72l42.823 19.11L424.8 87.201c-2.654-2.654-6.735-3.881-10.848-2.282z" fill="#c6c5ca"/></svg>